<?xml version="1.0" encoding="UTF-8"?>
<svg width="299px" height="79px" viewBox="0 0 299 79" version="1.1" xmlns="http://www.w3.org/2000/svg" xmlns:xlink="http://www.w3.org/1999/xlink">
    <!-- Generator: Sketch 58 (84663) - https://sketch.com -->
    <title>logo</title>
    <desc>Created with Sketch.</desc>
    <g id="logo" stroke="none" stroke-width="1" fill="none" fill-rule="evenodd">
        <path d="M20.016,59.784 L2.376,43.296 L2.376,38.328 L20.304,21.696 L26.208,29.832 L14.256,40.776 L26.208,51.504 L20.016,59.784 Z M29.52,28.752 C29.52,24.4799786 30.7679875,21.048013 33.264,18.456 C35.7600125,15.863987 39.1799783,14.568 43.524,14.568 C47.8680217,14.568 52.3199772,14.9999957 56.88,15.864 L55.44,27.384 L54.0590345,27.0693587 C50.0500624,26.1751155 47.246408,25.728 45.648,25.728 C43.3919887,25.728 42.264,26.6399909 42.264,28.464 C42.264,29.1840036 42.8039946,29.8799966 43.884,30.552 C44.9640054,31.2240034 46.2719923,31.9319963 47.808,32.676 C49.3440077,33.4200037 50.8799923,34.3079948 52.416,35.34 C53.9520077,36.3720052 55.2599946,37.8479904 56.34,39.768 C57.4200054,41.6880096 57.96,43.8959875 57.96,46.392 C57.96,50.9520228 56.7360122,54.4799875 54.288,56.976 C51.8399878,59.4720125 48.3720224,60.72 43.884,60.72 C39.3959776,60.72 35.0160214,60.024007 30.744,58.632 L31.536,47.904 L32.9832733,48.3150985 C37.3495384,49.5290383 40.4430877,50.136 42.264,50.136 C44.2800101,50.136 45.288,49.2480089 45.288,47.472 C45.288,46.5599954 44.7480054,45.7200038 43.668,44.952 C42.7079952,44.2693299 41.5678569,43.5866689 40.2475574,42.9040009 L39.744,42.648 C38.2079923,41.8799962 36.6600078,40.992005 35.1,39.984 C33.5399922,38.975995 32.2200054,37.5120096 31.14,35.592 C30.0599946,33.6719904 29.52,31.3920132 29.52,28.752 Z M60.696,42.648 C60.696,36.3119683 61.9079879,31.7280142 64.332,28.896 C66.7560121,26.0639858 70.5479742,24.648 75.708,24.648 C80.8680258,24.648 84.6239882,26.0399861 86.976,28.824 C89.3280118,31.6080139 90.504,36.1799682 90.504,42.54 C90.504,48.9000318 89.3520115,53.5199856 87.048,56.4 C84.7439885,59.2800144 80.9760262,60.72 75.744,60.72 C70.5119738,60.72 66.696012,59.2800144 64.296,56.4 C61.895988,53.5199856 60.696,48.9360314 60.696,42.648 Z M78.0171252,35.9336255 L77.976,35.808 C77.6879986,34.8479952 76.9200062,34.368 75.672,34.368 C74.4239938,34.368 73.6320017,34.8479952 73.296,35.808 C72.9739984,36.7280046 72.8062915,38.6178196 72.792875,41.4774983 L72.792,43.584 C72.792,46.992017 72.9599983,49.199995 73.296,50.208 C73.6320017,51.216005 74.4119939,51.72 75.636,51.72 C76.8600061,51.72 77.6399983,51.216005 77.976,50.208 C78.3120017,49.199995 78.48,47.1360156 78.48,44.016 L78.48,41.928 C78.48,38.937985 78.3257099,36.9398782 78.0171252,35.9336255 L78.0171252,35.9336255 Z M102.816,60.72 C97.1039714,60.72 94.248,57.5520317 94.248,51.216 L94.248,25.512 L106.488,25.512 L106.488,48.264 C106.488,49.464006 107.015995,50.064 108.072,50.064 C109.416007,50.064 110.543995,49.7280034 111.456,49.056 L111.456,25.512 L123.552,25.512 L123.552,59.856 L112.104,59.856 L112.104,57.336 L111.816,57.336 C109.175987,59.5920113 106.176017,60.72 102.816,60.72 Z M139.824,40.632 L139.824,60 L127.872,60 L127.872,25.512 L138.384,25.512 L139.104,27.6 L139.392,27.6 C140.496006,26.3519938 141.611994,25.5480018 142.74,25.188 C143.868006,24.8279982 145.703987,24.648 148.248,24.648 L147.744,36.168 L144.432,36.168 C142.559991,36.168 141.324003,36.4559971 140.724,37.032 C140.123997,37.6080029 139.824,38.8079909 139.824,40.632 Z M165.456,35.16 C164.063993,35.16 163.128002,35.7959936 162.648,37.068 C162.167998,38.3400064 161.928,40.3199866 161.928,43.008 C161.928,45.6960134 162.155998,47.639994 162.612,48.84 C163.068002,50.040006 164.027993,50.64 165.492,50.64 C166.956007,50.64 168.863988,50.3760026 171.216,49.848 L172.512,59.064 C169.199983,60.1680055 166.248013,60.72 163.656,60.72 C159.095977,60.72 155.652012,59.1840154 153.324,56.112 C150.995988,53.0399846 149.832,48.7440276 149.832,43.224 C149.832,37.7039724 151.031988,33.2280172 153.432,29.796 C155.832012,26.3639828 159.311977,24.648 163.872,24.648 C167.280017,24.648 170.351986,25.2239942 173.088,26.376 L171.792,36.96 C169.007986,35.759994 166.896007,35.16 165.456,35.16 Z M187.416,60 L175.536,60 L175.536,25.872 L187.416,25.872 L187.416,60 Z M176.472,23.136 C175.463995,22.2719957 174.96,20.8800096 174.96,18.96 C174.96,17.0399904 175.463995,15.6240046 176.472,14.712 C177.480005,13.7999954 179.135988,13.344 181.44,13.344 C183.744012,13.344 185.399995,13.7999954 186.408,14.712 C187.416005,15.6240046 187.92,17.0279905 187.92,18.924 C187.92,20.8200095 187.416005,22.2119956 186.408,23.1 C185.399995,23.9880044 183.744012,24.432 181.44,24.432 C179.135988,24.432 177.480005,24.0000043 176.472,23.136 Z M206.352,34.944 C205.103994,34.944 204.288002,35.3639958 203.904,36.204 C203.519998,37.0440042 203.328,38.3279914 203.328,40.056 L209.592,40.056 L209.592,38.328 C209.592,36.0719887 208.512011,34.944 206.352,34.944 Z M206.64,24.648 C211.584025,24.648 215.123989,25.8359881 217.26,28.212 C219.322355,30.5060804 220.389076,33.7509862 220.46019,37.9468089 L220.462256,38.5225746 C220.443654,39.287917 220.276237,41.8390371 219.96,46.176 L203.544,46.176 C203.544,49.776018 205.199983,51.576 208.512,51.576 C210.096008,51.576 213.191977,51.0240055 217.8,49.92 L218.808,58.848 C214.77598,60.0960062 210.74402,60.72 206.712,60.72 C201.767975,60.72 197.976013,59.1000162 195.336,55.86 C192.695987,52.6199838 191.376,48.2160278 191.376,42.648 C191.376,30.64794 196.463949,24.648 206.64,24.648 Z M235.728,40.632 L235.728,60 L223.776,60 L223.776,25.512 L234.288,25.512 L235.008,27.6 L235.296,27.6 C236.400006,26.3519938 237.515994,25.5480018 238.644,25.188 C239.772006,24.8279982 241.607987,24.648 244.152,24.648 L243.648,36.168 L240.336,36.168 C238.463991,36.168 237.228003,36.4559971 236.628,37.032 C236.027997,37.6080029 235.728,38.8079909 235.728,40.632 Z M270.864,15.288 L255.312,70.584 L243.432,70.584 L258.912,15.288 L270.864,15.288 Z M296.136,43.296 L278.496,59.784 L272.304,51.504 L284.256,40.776 L272.304,29.832 L278.208,21.696 L296.136,38.328 L296.136,43.296 Z" id="&lt;Sourcier/&gt;" fill="#212529" fill-rule="nonzero"></path>
    </g>
</svg>