<?xml version="1.0" encoding="utf-8"?>
<!-- Generator: Adobe Illustrator 19.2.0, SVG Export Plug-In . SVG Version: 6.00 Build 0)  -->
<svg version="1.1" id="Layer_1" xmlns="http://www.w3.org/2000/svg" xmlns:xlink="http://www.w3.org/1999/xlink" x="0px" y="0px"
	 viewBox="0 0 620 170" style="enable-background:new 0 0 620 170;" xml:space="preserve">
<style type="text/css">
	.st0{fill:#FF0000;}
</style>
<g>
	<path class="st0" d="M178,164c-12-18.5-24-36.9-36.1-55.4c-0.8,0.3-1.6,0.6-2.4,0.9c-1.1,16.5-2.1,33-3.2,50.1
		c-10.8,0-20.9,0-31.7,0c3.2-50.1,6.3-99.5,9.5-148.9c0.6-0.3,1.2-0.6,1.8-0.9c20.9,33.2,41.9,66.3,63.8,101
		c20.8-34.4,40.8-67.5,60.8-100.7c0.7,0.1,1.4,0.2,2.1,0.3c3.1,49.5,6.3,98.9,9.5,149.1c-11.1,0-20.9,0-31.6,0
		c-1.2-16.6-2.4-32.9-3.6-49.2c-0.9-0.2-1.8-0.5-2.7-0.7c-11.4,18.1-22.8,36.2-34.2,54.3C179.3,164,178.7,164,178,164z"/>
	<path class="st0" d="M610,140c-1.6,6.4-3.2,12.8-4.9,19.7c-26.8,0-53.7,0-81.4,0c0-50.5,0-100.6,0-151.3c27.6,0,54.8,0,82.2,0
		c1.4,6.7,2.8,13.1,4.1,19.6c0,1.3,0,2.7,0,4c-17.8,0-35.6,0-53.1,0c0,10.8,0,20.2,0,30.5c13.4,0,25.9,0,38.3,0c0,8.2,0,15.3,0,23.8
		c-13.3,0-26,0-38.5,0c0,17.2,0,33,0,49.6c18.3,0,35.8,0,53.3,0C610,137.4,610,138.7,610,140z"/>
	<path class="st0" d="M10,8c27.6,0,55.1,0,83.7,0c0.9,7.9,1.8,15.3,2.8,23.7c-19.1,0-37,0-55.6,0c0,10.3,0,19.7,0,30.3
		c14.7,0,28.8,0,43.6,0c0,8.3,0,15.4,0,23.7c-14.5,0-28.6,0-43.5,0c0,17.2,0,33.2,0,50.2c18.4,0,36.2,0,55.5,0
		c-1,7.6-1.3,14.2-3.2,20.3c-0.6,2.1-5.5,4-8.4,4c-25,0.2-49.9,0-74.9-0.1C10,109.4,10,58.7,10,8z"/>
	<path class="st0" d="M414.3,6c21.4,5,41.8,8.4,61.2,14.8c18.4,6.1,32.3,18.8,36.1,39.2c4.6,24.2-4.7,43-26.4,55.1
		c-2.6,1.4-5.3,2.7-9.7,5c13,10,25.2,19.3,39.1,30c-8.9,3.7-16.5,7.4-24.4,9.9c-2.3,0.7-6-1.8-8.5-3.6
		c-10.9-7.9-21.6-16.2-34.4-25.8c0,11.1,0,19.8,0,29c-11.5,0-21.7,0-32.9,0C414.3,109.3,414.3,59.4,414.3,6z M447.8,103.6
		c29.1-5.7,41.1-17.5,38.7-37.5c-2-15.8-19.5-28.5-38.7-27.6C447.8,60,447.8,81.4,447.8,103.6z"/>
	<path class="st0" d="M293.5,159.6c-10.9,0-20.5,0-31,0c0-50.2,0-100.1,0-151.5c27.3,2.7,54.7,3.8,77.5,21.4
		c29.8,23,27.7,64.3-4.4,83.6c-10.4,6.3-22.2,10.7-33.8,14.5c-6.7,2.2-9,5.2-8.4,11.9C293.9,145.8,293.5,152.1,293.5,159.6z
		 M294.1,103.9c25.7-2.1,41.8-16.7,40.2-35.8c-1.4-17-20-30.9-40.2-29.7C294.1,60.2,294.1,82.1,294.1,103.9z"/>
	<path class="st0" d="M400.6,159.6c-10.5,0-20.1,0-30.5,0c0-50.4,0-100.4,0-151.1c10.1,0,19.9,0,30.5,0
		C400.6,58.7,400.6,108.7,400.6,159.6z"/>
</g>
</svg>
