<?xml version="1.0" encoding="utf-8"?>
<!-- Generator: Adobe Illustrator 19.2.0, SVG Export Plug-In . SVG Version: 6.00 Build 0)  -->
<svg version="1.1" xmlns="http://www.w3.org/2000/svg" xmlns:xlink="http://www.w3.org/1999/xlink" x="0px" y="0px"
	 viewBox="0 0 481.9 198.4" style="enable-background:new 0 0 481.9 198.4;" xml:space="preserve">
<style type="text/css">
	.st0{display:none;}
	.st1{display:inline;}
	.st2{fill:none;}
	.st3{fill:#27231C;}
	.st4{fill:#FFFFFF;}
	.st5{fill:#FFAA00;}
</style>
<g id="Layer_1" class="st0">
	<g class="st1">
		<polygon class="st2" points="209.6,117.2 209.6,117.7 210.1,117.2 		"/>
		<polygon class="st2" points="209.6,118.5 209.6,120.5 213,117.2 211,117.2 		"/>
		<polygon class="st2" points="237.5,77.4 237.5,76.5 236.6,77.4 		"/>
		<polygon class="st2" points="237.5,75.7 237.5,73.7 233.8,77.4 235.8,77.4 		"/>
		<polygon class="st2" points="417,115.3 409.7,122.6 409.7,124.6 417,117.3 		"/>
		<polygon class="st2" points="430,164.6 423.3,171.3 425.3,171.3 432,164.6 		"/>
		<polygon class="st2" points="427.2,164.6 420.5,171.3 422.5,171.3 429.2,164.6 		"/>
		<polygon class="st2" points="432.9,164.6 426.1,171.3 428.1,171.3 434.9,164.6 		"/>
		<polygon class="st2" points="435.7,164.6 429,171.3 431,171.3 437.7,164.6 		"/>
		<polygon class="st2" points="438.5,164.6 431.8,171.3 433.8,171.3 440.5,164.6 		"/>
		<polygon class="st2" points="424.4,164.6 417.6,171.3 419.6,171.3 426.4,164.6 		"/>
		<polygon class="st2" points="417,164.6 417,163.5 409.7,170.8 409.7,171.3 411.1,171.3 417.9,164.6 		"/>
		<polygon class="st2" points="418.7,164.6 412,171.3 414,171.3 420.7,164.6 		"/>
		<polygon class="st2" points="441.4,164.6 434.7,171.3 436.6,171.3 443.4,164.6 		"/>
		<polygon class="st2" points="417,160.6 409.7,167.9 409.7,169.9 417,162.6 		"/>
		<polygon class="st2" points="394.2,34.2 392.7,34.2 392.9,34.4 387.3,40.1 386.6,42.7 393.9,35.4 		"/>
		<polygon class="st2" points="393.6,36.6 386.3,43.9 385.7,46.5 393,39.2 		"/>
		<polygon class="st2" points="444.2,164.6 437.5,171.3 439.5,171.3 446.2,164.6 		"/>
		<polygon class="st2" points="392.7,40.4 385.4,47.7 384.7,50.3 392,43 		"/>
		<polygon class="st2" points="450.7,171.3 453.5,171.3 458,166.8 458,164.6 457.4,164.6 		"/>
		<polygon class="st2" points="447,164.6 440.3,171.3 442.3,171.3 449,164.6 		"/>
		<polygon class="st2" points="391.7,44.2 384.4,51.5 383.8,54.1 391.1,46.8 		"/>
		<polygon class="st2" points="451.7,164.6 445,171.3 447.8,171.3 454.5,164.6 		"/>
		<polygon class="st2" points="454.5,164.6 447.8,171.3 450.7,171.3 457.4,164.6 		"/>
		<polygon class="st2" points="449.9,164.6 443.2,171.3 445.6,171.3 452.3,164.6 		"/>
		<polygon class="st2" points="417,118.1 409.7,125.4 409.7,127.4 417,120.1 		"/>
		<polygon class="st2" points="417,120.9 409.7,128.2 409.7,130.2 417,122.9 		"/>
		<polygon class="st2" points="417,123.8 409.7,131.1 409.7,133.1 417,125.8 		"/>
		<polygon class="st2" points="417,126.6 409.7,133.9 409.7,135.9 417,128.6 		"/>
		<polygon class="st2" points="417,106.8 409.7,114.1 409.7,116 417,108.8 		"/>
		<polygon class="st2" points="417,129.4 409.7,136.7 409.7,138.7 417,131.4 		"/>
		<polygon class="st2" points="417,109.6 409.7,116.9 409.7,118.9 417,111.6 		"/>
		<polygon class="st2" points="417,103.9 410.1,110.9 409.7,112.4 409.7,113.2 417,105.9 		"/>
		<polygon class="st2" points="417,155 409.7,162.3 409.7,164.2 417,156.9 		"/>
		<polygon class="st2" points="417,132.3 409.7,139.6 409.7,141.6 417,134.3 		"/>
		<polygon class="st2" points="417,149.3 409.7,156.6 409.7,158.6 417,151.3 		"/>
		<polygon class="st2" points="417,146.4 409.7,153.7 409.7,155.7 417,148.4 		"/>
		<polygon class="st2" points="417,157.8 409.7,165.1 409.7,167.1 417,159.8 		"/>
		<polygon class="st2" points="417,152.1 409.7,159.4 409.7,161.4 417,154.1 		"/>
		<polygon class="st2" points="417,143.6 409.7,150.9 409.7,152.9 417,145.6 		"/>
		<polygon class="st2" points="417,135.1 409.7,142.4 409.7,144.4 417,137.1 		"/>
		<polygon class="st2" points="417,137.9 409.7,145.2 409.7,147.2 417,139.9 		"/>
		<polygon class="st2" points="417,140.8 409.7,148.1 409.7,150.1 417,142.8 		"/>
		<polygon class="st2" points="421.5,164.6 414.8,171.3 416.8,171.3 423.5,164.6 		"/>
		<polygon class="st2" points="390.8,48 383.5,55.2 382.8,57.9 390.1,50.6 		"/>
		<polygon class="st2" points="290,41 290,43 297.3,35.7 297.3,34.2 296.4,34.2 296.6,34.4 		"/>
		<polygon class="st2" points="290,38.2 290,40.1 295.9,34.2 293.5,34.2 293.7,34.4 		"/>
		<polygon class="st2" points="290,35.3 290,37.3 293.1,34.2 290.7,34.2 290.9,34.4 		"/>
		<polygon class="st2" points="385.3,69.6 386,66.9 378.7,74.2 378.3,75.8 378.5,76.4 		"/>
		<polygon class="st2" points="389.8,51.7 382.5,59 381.8,61.7 389.1,54.4 		"/>
		<polygon class="st2" points="290.3,34.2 290,34.2 290,34.5 		"/>
		<polygon class="st2" points="388.9,55.5 381.6,62.8 380.9,65.5 388.2,58.2 		"/>
		<polygon class="st2" points="386.9,63.1 379.6,70.4 379,73.1 386.3,65.8 		"/>
		<polygon class="st2" points="387.9,59.3 380.6,66.6 379.9,69.3 387.2,62 		"/>
		<polygon class="st2" points="278.9,171.3 278.9,171.1 278.7,171.3 		"/>
		<polygon class="st2" points="201.3,171.3 201.3,169.4 199.4,171.3 		"/>
		<polygon class="st2" points="230.2,34.2 230.2,34.8 230.7,34.2 		"/>
		<polygon class="st2" points="198.5,171.3 201.3,168.5 201.3,166.5 196.5,171.3 		"/>
		<polygon class="st2" points="275.1,171.3 278.9,167.5 278.9,165.5 273.1,171.3 		"/>
		<polygon class="st2" points="234,34.2 234.2,34.4 230.2,38.5 230.2,40.5 236.4,34.2 		"/>
		<polygon class="st2" points="277.9,171.3 278.9,170.3 278.9,168.3 275.9,171.3 		"/>
		<polygon class="st2" points="231.2,34.2 231.4,34.4 230.2,35.6 230.2,37.6 233.6,34.2 		"/>
		<polygon class="st2" points="417,112.4 409.7,119.7 409.7,121.7 417,114.4 		"/>
		<polygon class="st2" points="237.5,138.9 230.2,146.2 230.2,148.2 237.5,140.9 		"/>
		<polygon class="st2" points="237.5,144.6 230.2,151.9 230.2,153.8 237.5,146.5 		"/>
		<polygon class="st2" points="237.5,141.7 230.2,149 230.2,151 237.5,143.7 		"/>
		<polygon class="st2" points="237.5,150.2 230.2,157.5 230.2,159.5 237.5,152.2 		"/>
		<polygon class="st2" points="237.5,153.1 230.2,160.4 230.2,162.3 237.5,155.1 		"/>
		<polygon class="st2" points="237.5,147.4 230.2,154.7 230.2,156.7 237.5,149.4 		"/>
		<polygon class="st2" points="237.5,136.1 230.2,143.4 230.2,145.3 237.5,138 		"/>
		<polygon class="st2" points="254.3,164.6 247.6,171.3 249.6,171.3 256.3,164.6 		"/>
		<polygon class="st2" points="237.5,130.4 230.2,137.7 230.2,139.7 237.5,132.4 		"/>
		<polygon class="st2" points="237.5,133.2 230.2,140.5 230.2,142.5 237.5,135.2 		"/>
		<polygon class="st2" points="237.5,158.7 230.2,166 230.2,168 237.5,160.7 		"/>
		<polygon class="st2" points="245.8,164.6 239.1,171.3 241,171.3 247.8,164.6 		"/>
		<polygon class="st2" points="248.6,164.6 241.9,171.3 243.9,171.3 250.6,164.6 		"/>
		<polygon class="st2" points="237.5,155.9 230.2,163.2 230.2,165.2 237.5,157.9 		"/>
		<polygon class="st2" points="251.5,164.6 244.7,171.3 246.7,171.3 253.4,164.6 		"/>
		<polygon class="st2" points="243,164.6 236.2,171.3 238.2,171.3 244.9,164.6 		"/>
		<polygon class="st2" points="237.5,161.6 230.2,168.9 230.2,170.9 237.5,163.6 		"/>
		<polygon class="st2" points="237.5,124.7 230.2,132 230.2,134 237.5,126.7 		"/>
		<polygon class="st2" points="237.5,164.6 237.5,164.4 230.6,171.3 232.5,171.3 239.3,164.6 		"/>
		<polygon class="st2" points="240.1,164.6 233.4,171.3 235.4,171.3 242.1,164.6 		"/>
		<polygon class="st2" points="237.5,127.6 230.2,134.8 230.2,136.8 237.5,129.5 		"/>
		<polygon class="st2" points="191.9,164.6 185.2,171.3 187.2,171.3 193.9,164.6 		"/>
		<polygon class="st2" points="189.1,164.6 182.4,171.3 184.4,171.3 191.1,164.6 		"/>
		<polygon class="st2" points="194.8,164.6 188,171.3 190,171.3 196.8,164.6 		"/>
		<polygon class="st2" points="193.7,171.3 195.7,171.3 201.3,165.7 201.3,164.6 200.4,164.6 		"/>
		<polygon class="st2" points="197.6,164.6 190.9,171.3 192.9,171.3 199.6,164.6 		"/>
		<polygon class="st2" points="186.3,164.6 179.5,171.3 181.5,171.3 188.2,164.6 		"/>
		<polygon class="st2" points="177.8,164.6 171,171.3 173,171.3 179.7,164.6 		"/>
		<polygon class="st2" points="180.6,164.6 173.9,171.3 175.9,171.3 182.6,164.6 		"/>
		<polygon class="st2" points="183.4,164.6 176.7,171.3 178.7,171.3 185.4,164.6 		"/>
		<polygon class="st2" points="219.5,117.2 212.8,123.9 214.7,123.9 221.5,117.2 		"/>
		<polygon class="st2" points="237.5,117.2 236.5,117.2 229.8,123.9 230.2,123.9 230.2,125.5 237.5,118.2 		"/>
		<polygon class="st2" points="233.7,117.2 226.9,123.9 228.9,123.9 235.6,117.2 		"/>
		<polygon class="st2" points="174.9,164.6 168.2,171.3 170.2,171.3 176.9,164.6 		"/>
		<polygon class="st2" points="237.5,119 230.2,126.3 230.2,128.3 237.5,121 		"/>
		<polygon class="st2" points="228,117.2 221.3,123.9 223.3,123.9 230,117.2 		"/>
		<polygon class="st2" points="216.7,117.2 209.9,123.9 211.9,123.9 218.6,117.2 		"/>
		<polygon class="st2" points="222.3,117.2 215.6,123.9 217.6,123.9 224.3,117.2 		"/>
		<polygon class="st2" points="237.5,121.9 230.2,129.2 230.2,131.2 237.5,123.9 		"/>
		<polygon class="st2" points="225.2,117.2 218.4,123.9 220.4,123.9 227.1,117.2 		"/>
		<polygon class="st2" points="230.8,117.2 224.1,123.9 226.1,123.9 232.8,117.2 		"/>
		<polygon class="st2" points="141.2,123.8 141.5,123.4 141.5,121.4 139.2,123.8 		"/>
		<polygon class="st2" points="139.5,77.3 141.3,75.5 141.3,73.5 137.5,77.3 		"/>
		<polygon class="st2" points="257.1,164.6 250.4,171.3 252.4,171.3 259.1,164.6 		"/>
		<polygon class="st2" points="138.4,123.8 141.5,120.6 141.5,118.6 136.4,123.8 		"/>
		<polygon class="st2" points="78.5,171.4 78.5,170.3 77.4,171.4 		"/>
		<polygon class="st2" points="237.5,68 230.2,75.3 230.2,77.3 237.5,70 		"/>
		<polygon class="st2" points="141.3,77.3 141.3,76.3 140.3,77.3 		"/>
		<polygon class="st2" points="152.6,39.5 152.6,41.5 159.9,34.2 157.5,34.2 157.7,34.4 		"/>
		<polygon class="st2" points="154.2,34.2 152.6,34.2 152.6,35.8 		"/>
		<polygon class="st2" points="152.6,36.7 152.6,38.7 157,34.2 154.6,34.2 154.8,34.4 		"/>
		<polygon class="st2" points="76.5,171.4 78.5,169.4 78.5,167.5 74.5,171.4 		"/>
		<polygon class="st2" points="15.7,34.2 15.9,34.4 15.5,34.9 15.5,36.9 18.1,34.2 		"/>
		<polygon class="st2" points="18.6,34.2 18.8,34.4 15.5,37.7 15.5,39.7 21,34.2 		"/>
		<polygon class="st2" points="136.6,77.3 141.3,72.7 141.3,70.7 134.7,77.3 		"/>
		<polygon class="st2" points="274.1,164.6 267.4,171.3 269.4,171.3 276.1,164.6 		"/>
		<polygon class="st2" points="270.2,171.3 272.2,171.3 278.9,164.6 278.9,164.6 277,164.6 		"/>
		<polygon class="st2" points="237.5,34.2 236.8,34.2 237,34.4 230.2,41.3 230.2,43.3 237.5,36 		"/>
		<polygon class="st2" points="271.3,164.6 264.6,171.3 266.6,171.3 273.3,164.6 		"/>
		<polygon class="st2" points="262.8,164.6 256.1,171.3 258.1,171.3 264.8,164.6 		"/>
		<polygon class="st2" points="237.5,36.8 230.2,44.1 230.2,46.1 237.5,38.8 		"/>
		<polygon class="st2" points="260,164.6 253.2,171.3 255.2,171.3 262,164.6 		"/>
		<polygon class="st2" points="265.6,164.6 258.9,171.3 260.9,171.3 267.6,164.6 		"/>
		<polygon class="st2" points="268.5,164.6 261.7,171.3 263.7,171.3 270.5,164.6 		"/>
		<polygon class="st2" points="237.5,59.5 230.2,66.8 230.2,68.8 237.5,61.5 		"/>
		<polygon class="st2" points="237.5,53.9 230.2,61.1 230.2,63.1 237.5,55.8 		"/>
		<polygon class="st2" points="237.5,65.2 230.2,72.5 230.2,74.5 237.5,67.2 		"/>
		<polygon class="st2" points="237.5,56.7 230.2,64 230.2,66 237.5,58.7 		"/>
		<polygon class="st2" points="237.5,62.4 230.2,69.6 230.2,71.6 237.5,64.3 		"/>
		<polygon class="st2" points="237.5,39.7 230.2,47 230.2,49 237.5,41.7 		"/>
		<polygon class="st2" points="237.5,51 230.2,58.3 230.2,60.3 237.5,53 		"/>
		<polygon class="st2" points="237.5,45.3 230.2,52.6 230.2,54.6 237.5,47.3 		"/>
		<polygon class="st2" points="237.5,42.5 230.2,49.8 230.2,51.8 237.5,44.5 		"/>
		<polygon class="st2" points="237.5,48.2 230.2,55.5 230.2,57.5 237.5,50.2 		"/>
		<polygon class="st2" points="159.9,54.9 152.6,62.2 152.6,64.2 159.9,56.9 		"/>
		<polygon class="st2" points="159.9,35.1 152.6,42.4 152.6,44.3 159.9,37 		"/>
		<polygon class="st2" points="237.5,72.8 237.5,70.9 230.9,77.4 232.9,77.4 		"/>
		<polygon class="st2" points="209.6,121.4 209.6,123.4 215.8,117.2 213.8,117.2 		"/>
		<polygon class="st2" points="159.9,52.1 152.6,59.4 152.6,61.3 159.9,54.1 		"/>
		<polygon class="st2" points="159.9,57.7 152.6,65 152.6,67 159.9,59.7 		"/>
		<polygon class="st2" points="159.9,37.9 152.6,45.2 152.6,47.2 159.9,39.9 		"/>
		<polygon class="st2" points="159.9,60.6 152.6,67.9 152.6,69.9 159.9,62.6 		"/>
		<polygon class="st2" points="159.9,43.6 152.6,50.9 152.6,52.8 159.9,45.5 		"/>
		<polygon class="st2" points="159.9,40.7 152.6,48 152.6,50 159.9,42.7 		"/>
		<polygon class="st2" points="159.9,46.4 152.6,53.7 152.6,55.7 159.9,48.4 		"/>
		<polygon class="st2" points="159.9,49.2 152.6,56.5 152.6,58.5 159.9,51.2 		"/>
		<polygon class="st2" points="159.9,63.4 152.6,70.7 152.6,72.7 159.9,65.4 		"/>
		<polygon class="st2" points="159.9,142.8 152.6,150.1 152.6,152.1 159.9,144.8 		"/>
		<polygon class="st2" points="159.9,139.9 152.6,147.2 152.6,149.2 159.9,141.9 		"/>
		<polygon class="st2" points="172.1,164.6 165.4,171.3 167.3,171.3 174.1,164.6 		"/>
		<polygon class="st2" points="159.9,145.6 152.6,152.9 152.6,154.9 159.9,147.6 		"/>
		<polygon class="st2" points="159.9,137.1 152.6,144.4 152.6,146.4 159.9,139.1 		"/>
		<polygon class="st2" points="159.9,128.6 152.6,135.9 152.6,137.9 159.9,130.6 		"/>
		<polygon class="st2" points="159.9,148.4 152.6,155.7 152.6,157.7 159.9,150.4 		"/>
		<polygon class="st2" points="159.9,125.8 152.6,133.1 152.6,135 159.9,127.8 		"/>
		<polygon class="st2" points="159.9,131.4 152.6,138.7 152.6,140.7 159.9,133.4 		"/>
		<polygon class="st2" points="159.9,134.3 152.6,141.6 152.6,143.6 159.9,136.3 		"/>
		<polygon class="st2" points="159.9,151.3 152.6,158.6 152.6,160.6 159.9,153.3 		"/>
		<polygon class="st2" points="166.4,164.6 159.7,171.3 161.7,171.3 168.4,164.6 		"/>
		<polygon class="st2" points="160.8,164.6 154,171.3 156,171.3 162.7,164.6 		"/>
		<polygon class="st2" points="163.6,164.6 156.9,171.3 158.8,171.3 165.6,164.6 		"/>
		<polygon class="st2" points="169.3,164.6 162.5,171.3 164.5,171.3 171.2,164.6 		"/>
		<polygon class="st2" points="159.9,164.6 159.9,162.6 152.6,169.9 152.6,171.3 153.2,171.3 159.9,164.6 		"/>
		<polygon class="st2" points="159.9,122.9 152.6,130.2 152.6,132.2 159.9,124.9 		"/>
		<polygon class="st2" points="159.9,154.1 152.6,161.4 152.6,163.4 159.9,156.1 		"/>
		<polygon class="st2" points="159.9,156.9 152.6,164.2 152.6,166.2 159.9,158.9 		"/>
		<polygon class="st2" points="159.9,159.8 152.6,167.1 152.6,169.1 159.9,161.8 		"/>
		<polygon class="st2" points="159.9,111.6 152.6,118.9 152.6,120.9 159.9,113.6 		"/>
		<polygon class="st2" points="159.9,83.2 152.6,90.5 152.6,92.5 159.9,85.2 		"/>
		<polygon class="st2" points="159.9,86.1 152.6,93.4 152.6,95.4 159.9,88.1 		"/>
		<polygon class="st2" points="159.9,88.9 152.6,96.2 152.6,98.2 159.9,90.9 		"/>
		<polygon class="st2" points="159.9,80.4 152.6,87.7 152.6,89.7 159.9,82.4 		"/>
		<polygon class="st2" points="159.9,69.1 152.6,76.4 152.6,78.4 159.9,71.1 		"/>
		<polygon class="st2" points="159.9,71.9 152.6,79.2 152.6,81.2 159.9,73.9 		"/>
		<polygon class="st2" points="159.9,91.8 152.6,99 152.6,101 159.9,93.7 		"/>
		<polygon class="st2" points="159.9,74.7 152.6,82 152.6,84 159.9,76.7 		"/>
		<polygon class="st2" points="159.9,77.6 152.6,84.9 152.6,86.9 159.9,79.6 		"/>
		<polygon class="st2" points="159.9,100.3 152.6,107.5 152.6,109.5 159.9,102.2 		"/>
		<polygon class="st2" points="159.9,114.4 152.6,121.7 152.6,123.7 159.9,116.4 		"/>
		<polygon class="st2" points="159.9,108.8 152.6,116.1 152.6,118 159.9,110.7 		"/>
		<polygon class="st2" points="159.9,66.2 152.6,73.5 152.6,75.5 159.9,68.2 		"/>
		<polygon class="st2" points="159.9,117.3 152.6,124.6 152.6,126.5 159.9,119.2 		"/>
		<polygon class="st2" points="159.9,94.6 152.6,101.9 152.6,103.9 159.9,96.6 		"/>
		<polygon class="st2" points="159.9,105.9 152.6,113.2 152.6,115.2 159.9,107.9 		"/>
		<polygon class="st2" points="159.9,97.4 152.6,104.7 152.6,106.7 159.9,99.4 		"/>
		<polygon class="st2" points="159.9,120.1 152.6,127.4 152.6,129.4 159.9,122.1 		"/>
		<polygon class="st2" points="159.9,103.1 152.6,110.4 152.6,112.4 159.9,105.1 		"/>
		<polygon class="st2" points="297.3,76.2 290,83.5 290,85.5 297.3,78.2 		"/>
		<polygon class="st2" points="381.1,86.4 381.2,85.9 381,86.1 		"/>
		<polygon class="st2" points="384.1,74.5 379.2,79.3 379.6,80.9 383.4,77.1 		"/>
		<polygon class="st2" points="383.1,78.3 379.8,81.6 380.2,83.2 382.4,80.9 		"/>
		<polygon class="st2" points="382.2,82.1 380.4,83.8 380.8,85.4 381.5,84.7 		"/>
		<polygon class="st2" points="336.2,96 339.3,92.9 338.9,91.3 336.2,94 		"/>
		<polygon class="st2" points="384.4,73.4 385,70.7 378.6,77.1 379.1,78.7 		"/>
		<polygon class="st2" points="411.4,101 409.7,102.7 409.7,104.7 410.8,103.6 		"/>
		<polygon class="st2" points="417,98.3 411.9,103.4 411.3,106 417,100.2 		"/>
		<polygon class="st2" points="411,107.1 410.3,109.7 417,103.1 417,101.1 		"/>
		<polygon class="st2" points="336.2,101.6 340.5,97.3 340.1,95.8 336.2,99.6 		"/>
		<polygon class="st2" points="336.2,104.5 341.2,99.5 340.7,98 336.2,102.5 		"/>
		<polygon class="st2" points="336.2,107.3 341.8,101.8 341.3,100.2 336.2,105.3 		"/>
		<polygon class="st2" points="336.2,98.8 339.9,95.1 339.5,93.5 336.2,96.8 		"/>
		<polygon class="st2" points="336.2,81.7 336.2,81.8 336.3,81.8 		"/>
		<polygon class="st2" points="458,171.3 458,169.6 456.3,171.3 		"/>
		<polygon class="st2" points="328,171.3 328,170.3 326.9,171.3 		"/>
		<polygon class="st2" points="323.3,171.3 328,166.6 328,164.6 321.3,171.3 		"/>
		<polygon class="st2" points="388.4,171.3 389,170.8 389.7,168.1 386.5,171.3 		"/>
		<polygon class="st2" points="326.1,171.3 328,169.5 328,167.5 324.1,171.3 		"/>
		<polygon class="st2" points="456.3,171.3 458,169.6 458,166.8 453.5,171.3 		"/>
		<polygon class="st2" points="389.9,34.2 390.1,34.4 388.3,36.3 387.6,39 392.3,34.2 		"/>
		<polygon class="st2" points="388.8,34.2 388.5,35.2 389.5,34.2 		"/>
		<polygon class="st2" points="414,94.8 417,91.7 417,89.8 414.6,92.2 		"/>
		<polygon class="st2" points="414.9,91 417,88.9 417,86.9 415.5,88.4 		"/>
		<polygon class="st2" points="415.8,87.3 417,86.1 417,84.1 416.4,84.7 		"/>
		<polygon class="st2" points="413.1,98.5 417,94.6 417,92.6 413.7,95.9 		"/>
		<polygon class="st2" points="412.2,102.3 417,97.4 417,95.4 412.8,99.6 		"/>
		<polygon class="st2" points="417,82.2 416.7,83.6 417,83.2 		"/>
		<polygon class="st2" points="354.8,149.1 347.6,156.3 348,157.9 355.3,150.6 		"/>
		<polygon class="st2" points="297.3,147.1 290,154.4 290,156.4 297.3,149.1 		"/>
		<polygon class="st2" points="297.3,149.9 290,157.2 290,159.2 297.3,151.9 		"/>
		<polygon class="st2" points="297.3,152.8 290,160.1 290,162 297.3,154.7 		"/>
		<polygon class="st2" points="297.3,155.6 290,162.9 290,164.9 297.3,157.6 		"/>
		<polygon class="st2" points="297.3,158.4 290,165.7 290,167.7 297.3,160.4 		"/>
		<polygon class="st2" points="297.3,144.3 290,151.5 290,153.5 297.3,146.2 		"/>
		<polygon class="st2" points="297.3,135.8 290,143 290,145 297.3,137.7 		"/>
		<polygon class="st2" points="297.3,130.1 290,137.4 290,139.4 297.3,132.1 		"/>
		<polygon class="st2" points="297.3,138.6 290,145.9 290,147.9 297.3,140.6 		"/>
		<polygon class="st2" points="297.3,141.4 290,148.7 290,150.7 297.3,143.4 		"/>
		<polygon class="st2" points="297.3,132.9 290,140.2 290,142.2 297.3,134.9 		"/>
		<polygon class="st2" points="308.2,164.6 301.4,171.3 303.4,171.3 310.1,164.6 		"/>
		<polygon class="st2" points="311,164.6 304.3,171.3 306.2,171.3 313,164.6 		"/>
		<polygon class="st2" points="313.8,164.6 307.1,171.3 309.1,171.3 315.8,164.6 		"/>
		<polygon class="st2" points="316.7,164.6 309.9,171.3 311.9,171.3 318.6,164.6 		"/>
		<polygon class="st2" points="299.6,164.6 292.9,171.3 294.9,171.3 301.6,164.6 		"/>
		<polygon class="st2" points="297.3,161.3 290,168.6 290,170.5 297.3,163.2 		"/>
		<polygon class="st2" points="297.3,164.6 297.3,164.1 290.1,171.3 292.1,171.3 298.8,164.6 		"/>
		<polygon class="st2" points="305.3,164.6 298.6,171.3 300.6,171.3 307.3,164.6 		"/>
		<polygon class="st2" points="302.5,164.6 295.8,171.3 297.7,171.3 304.5,164.6 		"/>
		<polygon class="st2" points="297.3,79.1 290,86.4 290,88.3 297.3,81 		"/>
		<polygon class="st2" points="297.3,93.2 290,100.5 290,102.5 297.3,95.2 		"/>
		<polygon class="st2" points="297.3,90.4 290,97.7 290,99.7 297.3,92.4 		"/>
		<polygon class="st2" points="297.3,96.1 290,103.4 290,105.3 297.3,98.1 		"/>
		<polygon class="st2" points="297.3,87.6 290,94.9 290,96.8 297.3,89.5 		"/>
		<polygon class="st2" points="297.3,81.9 290,89.2 290,91.2 297.3,83.9 		"/>
		<polygon class="st2" points="297.3,127.2 290,134.5 290,136.5 297.3,129.2 		"/>
		<polygon class="st2" points="297.3,98.9 290,106.2 290,108.2 297.3,100.9 		"/>
		<polygon class="st2" points="297.3,84.7 290,92 290,94 297.3,86.7 		"/>
		<polygon class="st2" points="319.5,164.6 312.8,171.3 314.7,171.3 321.5,164.6 		"/>
		<polygon class="st2" points="336.2,93.1 338.7,90.7 338.3,89.1 336.2,91.1 		"/>
		<polygon class="st2" points="297.3,121.6 290,128.9 290,130.9 297.3,123.6 		"/>
		<polygon class="st2" points="297.3,124.4 290,131.7 290,133.7 297.3,126.4 		"/>
		<polygon class="st2" points="297.3,101.7 290,109 290,111 297.3,103.7 		"/>
		<polygon class="st2" points="297.3,115.9 290,123.2 290,125.2 297.3,117.9 		"/>
		<polygon class="st2" points="297.3,107.4 290,114.7 290,116.7 297.3,109.4 		"/>
		<polygon class="st2" points="297.3,113.1 290,120.4 290,122.4 297.3,115.1 		"/>
		<polygon class="st2" points="297.3,104.6 290,111.9 290,113.9 297.3,106.6 		"/>
		<polygon class="st2" points="297.3,110.2 290,117.5 290,119.5 297.3,112.2 		"/>
		<polygon class="st2" points="345,113.5 337.8,120.8 338.2,122.4 345.5,115.1 		"/>
		<polygon class="st2" points="357.9,160.2 350.6,167.5 351.1,169 358.3,161.7 		"/>
		<polygon class="st2" points="358.5,162.4 351.3,169.7 351.7,171.2 358.9,164 		"/>
		<polygon class="st2" points="362,164.6 355.3,171.3 357.3,171.3 364,164.6 		"/>
		<polygon class="st2" points="357.3,158 350,165.2 350.5,166.8 357.7,159.5 		"/>
		<polygon class="st2" points="359.2,164.6 352.4,171.3 354.4,171.3 361.2,164.6 		"/>
		<polygon class="st2" points="383.6,171.3 385.6,171.3 389.9,167 390.5,164.6 390.4,164.6 		"/>
		<polygon class="st2" points="356.7,155.7 349.4,163 349.8,164.6 357.1,157.3 		"/>
		<polygon class="st2" points="355.5,151.3 348.2,158.6 348.6,160.1 355.9,152.9 		"/>
		<polygon class="st2" points="356.1,153.5 348.8,160.8 349.2,162.3 356.5,155.1 		"/>
		<polygon class="st2" points="370.5,164.6 363.8,171.3 365.8,171.3 372.5,164.6 		"/>
		<polygon class="st2" points="379,164.6 372.3,171.3 374.3,171.3 381,164.6 		"/>
		<polygon class="st2" points="381.9,164.6 375.1,171.3 377.1,171.3 383.8,164.6 		"/>
		<polygon class="st2" points="384.7,164.6 378,171.3 379.9,171.3 386.7,164.6 		"/>
		<polygon class="st2" points="387.5,164.6 380.8,171.3 382.8,171.3 389.5,164.6 		"/>
		<polygon class="st2" points="376.2,164.6 369.5,171.3 371.4,171.3 378.2,164.6 		"/>
		<polygon class="st2" points="322.3,164.6 315.6,171.3 317.6,171.3 324.3,164.6 		"/>
		<polygon class="st2" points="367.7,164.6 361,171.3 362.9,171.3 369.7,164.6 		"/>
		<polygon class="st2" points="354.2,146.9 347,154.1 347.4,155.7 354.7,148.4 		"/>
		<polygon class="st2" points="373.3,164.6 366.6,171.3 368.6,171.3 375.3,164.6 		"/>
		<polygon class="st2" points="364.8,164.6 358.1,171.3 360.1,171.3 366.8,164.6 		"/>
		<polygon class="st2" points="297.3,73.4 290,80.7 290,82.7 297.3,75.4 		"/>
		<polygon class="st2" points="345.6,115.8 338.4,123 338.8,124.6 346.1,117.3 		"/>
		<polygon class="st2" points="346.3,118 339,125.3 339.4,126.8 346.7,119.5 		"/>
		<polygon class="st2" points="347.5,122.4 340.2,129.7 340.6,131.2 347.9,124 		"/>
		<polygon class="st2" points="346.9,120.2 339.6,127.5 340,129 347.3,121.8 		"/>
		<polygon class="st2" points="325.2,164.6 318.4,171.3 320.4,171.3 327.1,164.6 		"/>
		<polygon class="st2" points="343.2,106.9 336.2,113.8 336.2,115.3 336.4,115.7 343.6,108.4 		"/>
		<polygon class="st2" points="343.8,109.1 336.5,116.4 337,117.9 344.2,110.7 		"/>
		<polygon class="st2" points="344.4,111.3 337.1,118.6 337.6,120.1 344.8,112.9 		"/>
		<polygon class="st2" points="351.2,135.8 343.9,143 344.3,144.6 351.6,137.3 		"/>
		<polygon class="st2" points="353.6,144.6 346.3,151.9 346.8,153.5 354,146.2 		"/>
		<polygon class="st2" points="348.1,124.6 340.8,131.9 341.3,133.5 348.5,126.2 		"/>
		<polygon class="st2" points="352.4,140.2 345.1,147.5 345.5,149 352.8,141.8 		"/>
		<polygon class="st2" points="353,142.4 345.7,149.7 346.2,151.2 353.4,144 		"/>
		<polygon class="st2" points="351.8,138 344.5,145.2 344.9,146.8 352.2,139.5 		"/>
		<polygon class="st2" points="350.5,133.5 343.3,140.8 343.7,142.4 351,135.1 		"/>
		<polygon class="st2" points="348.7,126.9 341.4,134.1 341.9,135.7 349.1,128.4 		"/>
		<polygon class="st2" points="349.3,129.1 342.1,136.4 342.5,137.9 349.7,130.6 		"/>
		<polygon class="st2" points="349.9,131.3 342.7,138.6 343.1,140.1 350.4,132.9 		"/>
		<polygon class="st2" points="297.3,118.7 290,126 290,128 297.3,120.7 		"/>
		<polygon class="st2" points="297.3,70.6 290,77.8 290,79.8 297.3,72.5 		"/>
		<polygon class="st2" points="336.2,87.5 337.5,86.2 337.1,84.7 336.2,85.5 		"/>
		<polygon class="st2" points="336.2,90.3 338.1,88.4 337.7,86.9 336.2,88.3 		"/>
		<polygon class="st2" points="336.2,84.6 336.9,84 336.4,82.4 336.2,82.6 		"/>
		<polygon class="st2" points="342,102.4 336.2,108.1 336.2,110.1 342.4,104 		"/>
		<polygon class="st2" points="336.2,111 336.2,113 343,106.2 342.6,104.7 		"/>
		<polygon class="st2" points="297.3,36.5 290,43.8 290,45.8 297.3,38.5 		"/>
		<polygon class="st2" points="297.3,42.2 290,49.5 290,51.5 297.3,44.2 		"/>
		<polygon class="st2" points="297.3,39.4 290,46.7 290,48.7 297.3,41.4 		"/>
		<polygon class="st2" points="297.3,45 290,52.3 290,54.3 297.3,47 		"/>
		<polygon class="st2" points="297.3,64.9 290,72.2 290,74.2 297.3,66.9 		"/>
		<polygon class="st2" points="297.3,67.7 290,75 290,77 297.3,69.7 		"/>
		<polygon class="st2" points="297.3,59.2 290,66.5 290,68.5 297.3,61.2 		"/>
		<polygon class="st2" points="297.3,62.1 290,69.3 290,71.3 297.3,64 		"/>
		<polygon class="st2" points="297.3,56.4 290,63.7 290,65.7 297.3,58.4 		"/>
		<polygon class="st2" points="297.3,50.7 290,58 290,60 297.3,52.7 		"/>
		<polygon class="st2" points="297.3,47.9 290,55.2 290,57.2 297.3,49.9 		"/>
		<polygon class="st2" points="297.3,53.5 290,60.8 290,62.8 297.3,55.5 		"/>
		<polygon class="st2" points="89.5,70.6 87.5,70.6 86.8,71.3 86.8,73.3 		"/>
		<polygon class="st2" points="30.3,164.7 23.5,171.4 25.5,171.4 32.2,164.7 		"/>
		<polygon class="st2" points="33.1,164.7 26.4,171.4 28.3,171.4 35.1,164.7 		"/>
		<polygon class="st2" points="27.4,164.7 20.7,171.4 22.7,171.4 29.4,164.7 		"/>
		<polygon class="st2" points="22.8,158 15.5,165.3 15.5,167.2 22.8,159.9 		"/>
		<polygon class="st2" points="22.8,164.7 22.8,163.6 15.5,170.9 15.5,171.4 17,171.4 23.7,164.7 		"/>
		<polygon class="st2" points="22.8,160.8 15.5,168.1 15.5,170.1 22.8,162.8 		"/>
		<polygon class="st2" points="24.6,164.7 17.9,171.4 19.8,171.4 26.6,164.7 		"/>
		<polygon class="st2" points="41.6,164.7 34.9,171.4 36.8,171.4 43.6,164.7 		"/>
		<polygon class="st2" points="44.4,164.7 37.7,171.4 39.7,171.4 46.4,164.7 		"/>
		<polygon class="st2" points="38.8,164.7 32,171.4 34,171.4 40.7,164.7 		"/>
		<polygon class="st2" points="35.9,164.7 29.2,171.4 31.2,171.4 37.9,164.7 		"/>
		<polygon class="st2" points="22.8,155.1 15.5,162.4 15.5,164.4 22.8,157.1 		"/>
		<polygon class="st2" points="22.8,123.9 15.5,131.2 15.5,133.2 22.8,125.9 		"/>
		<polygon class="st2" points="22.8,118.3 15.5,125.6 15.5,127.6 22.8,120.3 		"/>
		<polygon class="st2" points="22.8,126.8 15.5,134.1 15.5,136.1 22.8,128.8 		"/>
		<polygon class="st2" points="22.8,121.1 15.5,128.4 15.5,130.4 22.8,123.1 		"/>
		<polygon class="st2" points="22.8,109.8 15.5,117.1 15.5,119.1 22.8,111.8 		"/>
		<polygon class="st2" points="22.8,115.4 15.5,122.7 15.5,124.7 22.8,117.4 		"/>
		<polygon class="st2" points="22.8,112.6 15.5,119.9 15.5,121.9 22.8,114.6 		"/>
		<polygon class="st2" points="22.8,129.6 15.5,136.9 15.5,138.9 22.8,131.6 		"/>
		<polygon class="st2" points="22.8,149.5 15.5,156.8 15.5,158.7 22.8,151.4 		"/>
		<polygon class="st2" points="22.8,146.6 15.5,153.9 15.5,155.9 22.8,148.6 		"/>
		<polygon class="st2" points="22.8,132.5 15.5,139.7 15.5,141.7 22.8,134.4 		"/>
		<polygon class="st2" points="22.8,152.3 15.5,159.6 15.5,161.6 22.8,154.3 		"/>
		<polygon class="st2" points="22.8,143.8 15.5,151.1 15.5,153.1 22.8,145.8 		"/>
		<polygon class="st2" points="22.8,135.3 15.5,142.6 15.5,144.6 22.8,137.3 		"/>
		<polygon class="st2" points="22.8,141 15.5,148.3 15.5,150.2 22.8,142.9 		"/>
		<polygon class="st2" points="22.8,106.9 15.5,114.2 15.5,116.2 22.8,108.9 		"/>
		<polygon class="st2" points="22.8,138.1 15.5,145.4 15.5,147.4 22.8,140.1 		"/>
		<polygon class="st2" points="71.7,171.4 73.7,171.4 78.5,166.6 78.5,164.7 78.4,164.7 		"/>
		<polygon class="st2" points="86.8,117 86.8,118.6 88.4,117 		"/>
		<polygon class="st2" points="94.9,117 88.2,123.8 90.2,123.8 96.9,117 		"/>
		<polygon class="st2" points="92.1,117 86.8,122.3 86.8,123.8 87.4,123.8 94.1,117 		"/>
		<polygon class="st2" points="72.8,164.7 66,171.4 68,171.4 74.8,164.7 		"/>
		<polygon class="st2" points="86.8,119.5 86.8,121.5 91.2,117 89.3,117 		"/>
		<polygon class="st2" points="75.6,164.7 68.9,171.4 70.9,171.4 77.6,164.7 		"/>
		<polygon class="st2" points="106.3,117 99.5,123.8 101.5,123.8 108.3,117 		"/>
		<polygon class="st2" points="103.4,117 96.7,123.8 98.7,123.8 105.4,117 		"/>
		<polygon class="st2" points="97.8,117 91,123.8 93,123.8 99.8,117 		"/>
		<polygon class="st2" points="100.6,117 93.9,123.8 95.9,123.8 102.6,117 		"/>
		<polygon class="st2" points="47.3,164.7 40.5,171.4 42.5,171.4 49.2,164.7 		"/>
		<polygon class="st2" points="52.9,164.7 46.2,171.4 48.2,171.4 54.9,164.7 		"/>
		<polygon class="st2" points="55.8,164.7 49,171.4 51,171.4 57.7,164.7 		"/>
		<polygon class="st2" points="67.1,164.7 60.4,171.4 62.4,171.4 69.1,164.7 		"/>
		<polygon class="st2" points="64.3,164.7 57.5,171.4 59.5,171.4 66.3,164.7 		"/>
		<polygon class="st2" points="69.9,164.7 63.2,171.4 65.2,171.4 71.9,164.7 		"/>
		<polygon class="st2" points="58.6,164.7 51.9,171.4 53.9,171.4 60.6,164.7 		"/>
		<polygon class="st2" points="61.4,164.7 54.7,171.4 56.7,171.4 63.4,164.7 		"/>
		<polygon class="st2" points="109.1,117 102.4,123.8 104.4,123.8 111.1,117 		"/>
		<polygon class="st2" points="22.8,38.9 15.5,46.2 15.5,48.2 22.8,40.9 		"/>
		<polygon class="st2" points="22.8,78.6 15.5,85.9 15.5,87.9 22.8,80.6 		"/>
		<polygon class="st2" points="22.8,75.8 15.5,83.1 15.5,85 22.8,77.7 		"/>
		<polygon class="st2" points="22.8,84.3 15.5,91.6 15.5,93.5 22.8,86.2 		"/>
		<polygon class="st2" points="22.8,81.4 15.5,88.7 15.5,90.7 22.8,83.4 		"/>
		<polygon class="st2" points="22.8,72.9 15.5,80.2 15.5,82.2 22.8,74.9 		"/>
		<polygon class="st2" points="22.8,61.6 15.5,68.9 15.5,70.9 22.8,63.6 		"/>
		<polygon class="st2" points="22.8,64.4 15.5,71.7 15.5,73.7 22.8,66.4 		"/>
		<polygon class="st2" points="22.8,70.1 15.5,77.4 15.5,79.4 22.8,72.1 		"/>
		<polygon class="st2" points="22.8,67.3 15.5,74.5 15.5,76.5 22.8,69.2 		"/>
		<polygon class="st2" points="22.8,58.8 15.5,66 15.5,68 22.8,60.7 		"/>
		<polygon class="st2" points="22.8,92.8 15.5,100.1 15.5,102 22.8,94.8 		"/>
		<polygon class="st2" points="22.8,98.4 15.5,105.7 15.5,107.7 22.8,100.4 		"/>
		<polygon class="st2" points="22.8,95.6 15.5,102.9 15.5,104.9 22.8,97.6 		"/>
		<polygon class="st2" points="22.8,87.1 15.5,94.4 15.5,96.4 22.8,89.1 		"/>
		<polygon class="st2" points="22.8,101.3 15.5,108.6 15.5,110.6 22.8,103.3 		"/>
		<polygon class="st2" points="22.8,89.9 15.5,97.2 15.5,99.2 22.8,91.9 		"/>
		<polygon class="st2" points="22.8,41.7 15.5,49 15.5,51 22.8,43.7 		"/>
		<polygon class="st2" points="86.8,74.1 86.8,76.1 92.3,70.6 90.4,70.6 		"/>
		<polygon class="st2" points="22.8,36.1 15.5,43.4 15.5,45.4 22.8,38.1 		"/>
		<polygon class="st2" points="22.8,50.2 15.5,57.5 15.5,59.5 22.8,52.2 		"/>
		<polygon class="st2" points="22.8,47.4 15.5,54.7 15.5,56.7 22.8,49.4 		"/>
		<polygon class="st2" points="22.8,44.6 15.5,51.9 15.5,53.9 22.8,46.6 		"/>
		<polygon class="st2" points="22.8,53.1 15.5,60.4 15.5,62.4 22.8,55.1 		"/>
		<polygon class="st2" points="22.8,104.1 15.5,111.4 15.5,113.4 22.8,106.1 		"/>
		<polygon class="st2" points="22.8,55.9 15.5,63.2 15.5,65.2 22.8,57.9 		"/>
		<polygon class="st2" points="22.8,34.2 21.4,34.2 21.6,34.4 15.5,40.5 15.5,42.5 22.8,35.2 		"/>
		<polygon class="st2" points="50.1,164.7 43.4,171.4 45.3,171.4 52.1,164.7 		"/>
		<polygon class="st2" points="135.7,70.6 129,77.3 131,77.3 137.7,70.6 		"/>
		<polygon class="st2" points="101.7,70.6 95,77.3 97,77.3 103.7,70.6 		"/>
		<polygon class="st2" points="128.9,117 122.2,123.8 124.2,123.8 130.9,117 		"/>
		<polygon class="st2" points="118.7,70.6 112,77.3 114,77.3 120.7,70.6 		"/>
		<polygon class="st2" points="131.8,117 125.1,123.8 127,123.8 133.8,117 		"/>
		<polygon class="st2" points="134.6,117 127.9,123.8 129.9,123.8 136.6,117 		"/>
		<polygon class="st2" points="126.1,117 119.4,123.8 121.4,123.8 128.1,117 		"/>
		<polygon class="st2" points="123.3,117 116.5,123.8 118.5,123.8 125.3,117 		"/>
		<polygon class="st2" points="107.4,70.6 100.6,77.3 102.6,77.3 109.4,70.6 		"/>
		<polygon class="st2" points="120.4,117 113.7,123.8 115.7,123.8 122.4,117 		"/>
		<polygon class="st2" points="104.5,70.6 97.8,77.3 99.8,77.3 106.5,70.6 		"/>
		<polygon class="st2" points="138.5,70.6 131.8,77.3 133.8,77.3 140.5,70.6 		"/>
		<polygon class="st2" points="130,70.6 123.3,77.3 125.3,77.3 132,70.6 		"/>
		<polygon class="st2" points="124.4,70.6 117.6,77.3 119.6,77.3 126.4,70.6 		"/>
		<polygon class="st2" points="96,70.6 89.3,77.3 91.3,77.3 98,70.6 		"/>
		<polygon class="st2" points="93.2,70.6 86.8,76.9 86.8,77.3 88.5,77.3 95.2,70.6 		"/>
		<polygon class="st2" points="133.6,123.8 135.5,123.8 141.5,117.8 141.5,117 140.3,117 		"/>
		<polygon class="st2" points="127.2,70.6 120.5,77.3 122.5,77.3 129.2,70.6 		"/>
		<polygon class="st2" points="98.9,70.6 92.1,77.3 94.1,77.3 100.8,70.6 		"/>
		<polygon class="st2" points="121.5,70.6 114.8,77.3 116.8,77.3 123.5,70.6 		"/>
		<polygon class="st2" points="137.4,117 130.7,123.8 132.7,123.8 139.4,117 		"/>
		<polygon class="st2" points="132.9,70.6 126.2,77.3 128.1,77.3 134.9,70.6 		"/>
		<polygon class="st2" points="115.9,70.6 109.1,77.3 111.1,77.3 117.9,70.6 		"/>
		<polygon class="st2" points="114.8,117 108,123.8 110,123.8 116.8,117 		"/>
		<polygon class="st2" points="113,70.6 106.3,77.3 108.3,77.3 115,70.6 		"/>
		<polygon class="st2" points="117.6,117 110.9,123.8 112.9,123.8 119.6,117 		"/>
		<polygon class="st2" points="111.9,117 105.2,123.8 107.2,123.8 113.9,117 		"/>
		<polygon class="st2" points="110.2,70.6 103.5,77.3 105.5,77.3 112.2,70.6 		"/>
		<polygon class="st3" points="297.3,157.6 290,164.9 290,165.7 297.3,158.4 		"/>
		<polygon class="st3" points="115,70.6 108.3,77.3 109.1,77.3 115.9,70.6 		"/>
		<polygon class="st3" points="297.3,151.9 290,159.2 290,160.1 297.3,152.8 		"/>
		<polygon class="st3" points="297.3,149.1 290,156.4 290,157.2 297.3,149.9 		"/>
		<polygon class="st3" points="297.3,154.7 290,162 290,162.9 297.3,155.6 		"/>
		<polygon class="st3" points="297.3,143.4 290,150.7 290,151.5 297.3,144.3 		"/>
		<polygon class="st3" points="297.3,146.2 290,153.5 290,154.4 297.3,147.1 		"/>
		<polygon class="st3" points="297.3,132.1 290,139.4 290,140.2 297.3,132.9 		"/>
		<polygon class="st3" points="297.3,126.4 290,133.7 290,134.5 297.3,127.2 		"/>
		<polygon class="st3" points="297.3,129.2 290,136.5 290,137.4 297.3,130.1 		"/>
		<polygon class="st3" points="297.3,123.6 290,130.9 290,131.7 297.3,124.4 		"/>
		<polygon class="st3" points="297.3,117.9 290,125.2 290,126 297.3,118.7 		"/>
		<polygon class="st3" points="297.3,137.7 290,145 290,145.9 297.3,138.6 		"/>
		<polygon class="st3" points="22.8,38.1 15.5,45.4 15.5,46.2 22.8,38.9 		"/>
		<polygon class="st3" points="22.8,35.2 15.5,42.5 15.5,43.4 22.8,36.1 		"/>
		<polygon class="st3" points="123.5,70.6 116.8,77.3 117.6,77.3 124.4,70.6 		"/>
		<polygon class="st3" points="297.3,134.9 290,142.2 290,143 297.3,135.8 		"/>
		<polygon class="st3" points="297.3,140.6 290,147.9 290,148.7 297.3,141.4 		"/>
		<polygon class="st3" points="324.3,164.6 317.6,171.3 318.4,171.3 325.2,164.6 		"/>
		<polygon class="st3" points="126.4,70.6 119.6,77.3 120.5,77.3 127.2,70.6 		"/>
		<polygon class="st3" points="315.8,164.6 309.1,171.3 309.9,171.3 316.7,164.6 		"/>
		<polygon class="st3" points="318.6,164.6 311.9,171.3 312.8,171.3 319.5,164.6 		"/>
		<polygon class="st3" points="22.8,43.7 15.5,51 15.5,51.9 22.8,44.6 		"/>
		<polygon class="st3" points="344.8,112.9 337.6,120.1 337.8,120.8 345,113.5 		"/>
		<polygon class="st3" points="344.2,110.7 337,117.9 337.1,118.6 344.4,111.3 		"/>
		<polygon class="st3" points="320.4,171.3 321.3,171.3 328,164.6 328,164.6 327.1,164.6 		"/>
		<polygon class="st3" points="343.6,108.4 336.4,115.7 336.5,116.4 343.8,109.1 		"/>
		<polygon class="st3" points="321.5,164.6 314.7,171.3 315.6,171.3 322.3,164.6 		"/>
		<polygon class="st3" points="297.3,163.2 290,170.5 290,171.3 290.1,171.3 297.3,164.1 		"/>
		<polygon class="st3" points="298.8,164.6 292.1,171.3 292.9,171.3 299.6,164.6 		"/>
		<polygon class="st3" points="297.3,160.4 290,167.7 290,168.6 297.3,161.3 		"/>
		<polygon class="st3" points="313,164.6 306.2,171.3 307.1,171.3 313.8,164.6 		"/>
		<polygon class="st3" points="310.1,164.6 303.4,171.3 304.3,171.3 311,164.6 		"/>
		<polygon class="st3" points="307.3,164.6 300.6,171.3 301.4,171.3 308.2,164.6 		"/>
		<polygon class="st3" points="304.5,164.6 297.7,171.3 298.6,171.3 305.3,164.6 		"/>
		<polygon class="st3" points="301.6,164.6 294.9,171.3 295.8,171.3 302.5,164.6 		"/>
		<polygon class="st3" points="297.3,120.7 290,128 290,128.9 297.3,121.6 		"/>
		<polygon class="st3" points="297.3,61.2 290,68.5 290,69.3 297.3,62.1 		"/>
		<polygon class="st3" points="297.3,64 290,71.3 290,72.2 297.3,64.9 		"/>
		<polygon class="st3" points="297.3,58.4 290,65.7 290,66.5 297.3,59.2 		"/>
		<polygon class="st3" points="297.3,52.7 290,60 290,60.8 297.3,53.5 		"/>
		<polygon class="st3" points="297.3,49.9 290,57.2 290,58 297.3,50.7 		"/>
		<polygon class="st3" points="297.3,47 290,54.3 290,55.2 297.3,47.9 		"/>
		<polygon class="st3" points="297.3,55.5 290,62.8 290,63.7 297.3,56.4 		"/>
		<polygon class="st3" points="297.3,66.9 290,74.2 290,75 297.3,67.7 		"/>
		<polygon class="st3" points="297.3,72.5 290,79.8 290,80.7 297.3,73.4 		"/>
		<polygon class="st3" points="297.3,75.4 290,82.7 290,83.5 297.3,76.2 		"/>
		<polygon class="st3" points="297.3,35.7 290,43 290,43.8 297.3,36.5 		"/>
		<polygon class="st3" points="385,70.7 385.3,69.6 378.5,76.4 378.6,77.1 		"/>
		<polygon class="st3" points="410.3,109.7 410.1,110.9 417,103.9 417,103.1 		"/>
		<polygon class="st3" points="336.2,113 336.2,113.8 343.2,106.9 343,106.2 		"/>
		<polygon class="st3" points="297.3,44.2 290,51.5 290,52.3 297.3,45 		"/>
		<polygon class="st3" points="297.3,41.4 290,48.7 290,49.5 297.3,42.2 		"/>
		<polygon class="st3" points="297.3,78.2 290,85.5 290,86.4 297.3,79.1 		"/>
		<polygon class="st3" points="297.3,38.5 290,45.8 290,46.7 297.3,39.4 		"/>
		<polygon class="st3" points="297.3,69.7 290,77 290,77.8 297.3,70.6 		"/>
		<polygon class="st3" points="297.3,109.4 290,116.7 290,117.5 297.3,110.2 		"/>
		<polygon class="st3" points="117.9,70.6 111.1,77.3 112,77.3 118.7,70.6 		"/>
		<polygon class="st3" points="297.3,112.2 290,119.5 290,120.4 297.3,113.1 		"/>
		<polygon class="st3" points="297.3,106.6 290,113.9 290,114.7 297.3,107.4 		"/>
		<polygon class="st3" points="297.3,115.1 290,122.4 290,123.2 297.3,115.9 		"/>
		<polygon class="st3" points="297.3,103.7 290,111 290,111.9 297.3,104.6 		"/>
		<polygon class="st3" points="21.4,34.2 21,34.2 15.5,39.7 15.5,40.5 21.6,34.4 		"/>
		<polygon class="st3" points="120.7,70.6 114,77.3 114.8,77.3 121.5,70.6 		"/>
		<polygon class="st3" points="297.3,81 290,88.3 290,89.2 297.3,81.9 		"/>
		<polygon class="st3" points="297.3,89.5 290,96.8 290,97.7 297.3,90.4 		"/>
		<polygon class="st3" points="297.3,95.2 290,102.5 290,103.4 297.3,96.1 		"/>
		<polygon class="st3" points="297.3,83.9 290,91.2 290,92 297.3,84.7 		"/>
		<polygon class="st3" points="297.3,86.7 290,94 290,94.9 297.3,87.6 		"/>
		<polygon class="st3" points="297.3,92.4 290,99.7 290,100.5 297.3,93.2 		"/>
		<polygon class="st3" points="86.8,76.1 86.8,76.9 93.2,70.6 92.3,70.6 		"/>
		<polygon class="st3" points="297.3,98.1 290,105.3 290,106.2 297.3,98.9 		"/>
		<polygon class="st3" points="297.3,100.9 290,108.2 290,109 297.3,101.7 		"/>
		<polygon class="st3" points="22.8,40.9 15.5,48.2 15.5,49 22.8,41.7 		"/>
		<polygon class="st3" points="388.2,58.2 380.9,65.5 380.6,66.6 387.9,59.3 		"/>
		<polygon class="st3" points="389.1,54.4 381.8,61.7 381.6,62.8 388.9,55.5 		"/>
		<polygon class="st3" points="390.1,50.6 382.8,57.9 382.5,59 389.8,51.7 		"/>
		<polygon class="st3" points="387.2,62 379.9,69.3 379.6,70.4 386.9,63.1 		"/>
		<polygon class="st3" points="391.1,46.8 383.8,54.1 383.5,55.2 390.8,48 		"/>
		<polygon class="st3" points="133.8,77.3 134.7,77.3 141.3,70.7 141.3,70.6 140.5,70.6 		"/>
		<polygon class="st3" points="393,39.2 385.7,46.5 385.4,47.7 392.7,40.4 		"/>
		<polygon class="st3" points="392,43 384.7,50.3 384.4,51.5 391.7,44.2 		"/>
		<polygon class="st3" points="388.9,171.3 389,170.8 388.4,171.3 		"/>
		<polygon class="st3" points="231.2,34.2 230.7,34.2 230.2,34.8 230.2,35.6 231.4,34.4 		"/>
		<polygon class="st3" points="234,34.2 233.6,34.2 230.2,37.6 230.2,38.5 234.2,34.4 		"/>
		<polygon class="st3" points="290,35.3 290.9,34.4 290.7,34.2 290.3,34.2 290,34.5 		"/>
		<polygon class="st3" points="278.7,171.3 278.9,171.1 278.9,170.3 277.9,171.3 		"/>
		<polygon class="st3" points="290,38.2 293.7,34.4 293.5,34.2 293.1,34.2 290,37.3 		"/>
		<polygon class="st3" points="290,41 296.6,34.4 296.4,34.2 295.9,34.2 290,40.1 		"/>
		<polygon class="st3" points="386.3,65.8 379,73.1 378.7,74.2 386,66.9 		"/>
		<polygon class="st3" points="389.9,34.2 389.5,34.2 388.5,35.2 388.3,36.3 390.1,34.4 		"/>
		<polygon class="st3" points="434.9,164.6 428.1,171.3 429,171.3 435.7,164.6 		"/>
		<polygon class="st3" points="426.4,164.6 419.6,171.3 420.5,171.3 427.2,164.6 		"/>
		<polygon class="st3" points="432,164.6 425.3,171.3 426.1,171.3 432.9,164.6 		"/>
		<polygon class="st3" points="429.2,164.6 422.5,171.3 423.3,171.3 430,164.6 		"/>
		<polygon class="st3" points="420.7,164.6 414,171.3 414.8,171.3 421.5,164.6 		"/>
		<polygon class="st3" points="423.5,164.6 416.8,171.3 417.6,171.3 424.4,164.6 		"/>
		<polygon class="st3" points="137.7,70.6 131,77.3 131.8,77.3 138.5,70.6 		"/>
		<polygon class="st3" points="443.4,164.6 436.6,171.3 437.5,171.3 444.2,164.6 		"/>
		<polygon class="st3" points="449,164.6 442.3,171.3 443.2,171.3 449.9,164.6 		"/>
		<polygon class="st3" points="437.7,164.6 431,171.3 431.8,171.3 438.5,164.6 		"/>
		<polygon class="st3" points="392.7,34.2 392.3,34.2 387.6,39 387.3,40.1 392.9,34.4 		"/>
		<polygon class="st3" points="446.2,164.6 439.5,171.3 440.3,171.3 447,164.6 		"/>
		<polygon class="st3" points="393.9,35.4 386.6,42.7 386.3,43.9 393.6,36.6 		"/>
		<polygon class="st3" points="440.5,164.6 433.8,171.3 434.7,171.3 441.4,164.6 		"/>
		<polygon class="st3" points="386.5,171.3 389.7,168.1 389.9,167 385.6,171.3 		"/>
		<polygon class="st3" points="111.1,117 104.4,123.8 105.2,123.8 111.9,117 		"/>
		<polygon class="st3" points="275.9,171.3 278.9,168.3 278.9,167.5 275.1,171.3 		"/>
		<polygon class="st3" points="196.5,171.3 201.3,166.5 201.3,165.7 195.7,171.3 		"/>
		<polygon class="st3" points="273.1,171.3 278.9,165.5 278.9,164.6 272.2,171.3 		"/>
		<polygon class="st3" points="199.4,171.3 201.3,169.4 201.3,168.5 198.5,171.3 		"/>
		<polygon class="st3" points="129.2,70.6 122.5,77.3 123.3,77.3 130,70.6 		"/>
		<polygon class="st3" points="354.7,148.4 347.4,155.7 347.6,156.3 354.8,149.1 		"/>
		<polygon class="st3" points="354,146.2 346.8,153.5 347,154.1 354.2,146.9 		"/>
		<polygon class="st3" points="351.6,137.3 344.3,144.6 344.5,145.2 351.8,138 		"/>
		<polygon class="st3" points="355.3,150.6 348,157.9 348.2,158.6 355.5,151.3 		"/>
		<polygon class="st3" points="355.9,152.9 348.6,160.1 348.8,160.8 356.1,153.5 		"/>
		<polygon class="st3" points="352.2,139.5 344.9,146.8 345.1,147.5 352.4,140.2 		"/>
		<polygon class="st3" points="132,70.6 125.3,77.3 126.2,77.3 132.9,70.6 		"/>
		<polygon class="st3" points="352.8,141.8 345.5,149 345.7,149.7 353,142.4 		"/>
		<polygon class="st3" points="353.4,144 346.2,151.2 346.3,151.9 353.6,144.6 		"/>
		<polygon class="st3" points="359.1,164.6 359,164.2 358.9,164 351.7,171.2 351.7,171.3 352.4,171.3 359.2,164.6 		"/>
		<polygon class="st3" points="361.2,164.6 354.4,171.3 355.3,171.3 362,164.6 		"/>
		<polygon class="st3" points="357.7,159.5 350.5,166.8 350.6,167.5 357.9,160.2 		"/>
		<polygon class="st3" points="358.3,161.7 351.1,169 351.3,169.7 358.5,162.4 		"/>
		<polygon class="st3" points="357.1,157.3 349.8,164.6 350,165.2 357.3,158 		"/>
		<polygon class="st3" points="356.5,155.1 349.2,162.3 349.4,163 356.7,155.7 		"/>
		<polygon class="st3" points="86.8,121.5 86.8,122.3 92.1,117 91.2,117 		"/>
		<polygon class="st3" points="349.1,128.4 341.9,135.7 342.1,136.4 349.3,129.1 		"/>
		<polygon class="st3" points="348.5,126.2 341.3,133.5 341.4,134.1 348.7,126.9 		"/>
		<polygon class="st3" points="347.9,124 340.6,131.2 340.8,131.9 348.1,124.6 		"/>
		<polygon class="st3" points="346.1,117.3 338.8,124.6 339,125.3 346.3,118 		"/>
		<polygon class="st3" points="346.7,119.5 339.4,126.8 339.6,127.5 346.9,120.2 		"/>
		<polygon class="st3" points="347.3,121.8 340,129 340.2,129.7 347.5,122.4 		"/>
		<polygon class="st3" points="350.4,132.9 343.1,140.1 343.3,140.8 350.5,133.5 		"/>
		<polygon class="st3" points="351,135.1 343.7,142.4 343.9,143 351.2,135.8 		"/>
		<polygon class="st3" points="364,164.6 357.3,171.3 358.1,171.3 364.8,164.6 		"/>
		<polygon class="st3" points="349.7,130.6 342.5,137.9 342.7,138.6 349.9,131.3 		"/>
		<polygon class="st3" points="326.9,171.3 328,170.3 328,169.5 326.1,171.3 		"/>
		<polygon class="st3" points="345.5,115.1 338.2,122.4 338.4,123 345.6,115.8 		"/>
		<polygon class="st3" points="366.8,164.6 360.1,171.3 361,171.3 367.7,164.6 		"/>
		<polygon class="st3" points="417,134.3 409.7,141.6 409.7,142.4 417,135.1 		"/>
		<polygon class="st3" points="417,139.9 409.7,147.2 409.7,148.1 417,140.8 		"/>
		<polygon class="st3" points="417,131.4 409.7,138.7 409.7,139.6 417,132.3 		"/>
		<polygon class="st3" points="417,125.8 409.7,133.1 409.7,133.9 417,126.6 		"/>
		<polygon class="st3" points="417,128.6 409.7,135.9 409.7,136.7 417,129.4 		"/>
		<polygon class="st3" points="417,122.9 409.7,130.2 409.7,131.1 417,123.8 		"/>
		<polygon class="st3" points="417,154.1 409.7,161.4 409.7,162.3 417,155 		"/>
		<polygon class="st3" points="417,159.8 409.7,167.1 409.7,167.9 417,160.6 		"/>
		<polygon class="st3" points="417,145.6 409.7,152.9 409.7,153.7 417,146.4 		"/>
		<polygon class="st3" points="417,162.6 409.7,169.9 409.7,170.8 417,163.5 		"/>
		<polygon class="st3" points="417,156.9 409.7,164.2 409.7,165.1 417,157.8 		"/>
		<polygon class="st3" points="417,148.4 409.7,155.7 409.7,156.6 417,149.3 		"/>
		<polygon class="st3" points="417,151.3 409.7,158.6 409.7,159.4 417,152.1 		"/>
		<polygon class="st3" points="417,120.1 409.7,127.4 409.7,128.2 417,120.9 		"/>
		<polygon class="st3" points="417,137.1 409.7,144.4 409.7,145.2 417,137.9 		"/>
		<polygon class="st3" points="381,164.6 374.3,171.3 375.1,171.3 381.9,164.6 		"/>
		<polygon class="st3" points="386.7,164.6 379.9,171.3 380.8,171.3 387.5,164.6 		"/>
		<polygon class="st3" points="383.8,164.6 377.1,171.3 378,171.3 384.7,164.6 		"/>
		<polygon class="st3" points="378.2,164.6 371.4,171.3 372.3,171.3 379,164.6 		"/>
		<polygon class="st3" points="369.7,164.6 362.9,171.3 363.8,171.3 370.5,164.6 		"/>
		<polygon class="st3" points="375.3,164.6 368.6,171.3 369.5,171.3 376.2,164.6 		"/>
		<polygon class="st3" points="372.5,164.6 365.8,171.3 366.6,171.3 373.3,164.6 		"/>
		<polygon class="st3" points="417,108.8 409.7,116 409.7,116.9 417,109.6 		"/>
		<polygon class="st3" points="417,114.4 409.7,121.7 409.7,122.6 417,115.3 		"/>
		<polygon class="st3" points="324.1,171.3 328,167.5 328,166.6 323.3,171.3 		"/>
		<polygon class="st2" points="461.4,171.3 461.4,170.3 460.4,171.3 		"/>
		<polygon class="st2" points="456.7,171.3 461.4,166.6 461.4,164.6 454.7,171.3 		"/>
		<polygon class="st2" points="459.5,171.3 461.4,169.5 461.4,167.5 457.5,171.3 		"/>
		<polygon class="st2" points="450.1,164.6 443.3,171.3 445.3,171.3 452.1,164.6 		"/>
		<polygon class="st2" points="452.9,164.6 446.2,171.3 448.2,171.3 454.9,164.6 		"/>
		<polygon class="st2" points="455.7,164.6 449,171.3 451,171.3 457.7,164.6 		"/>
		<polygon class="st2" points="458.6,164.6 451.8,171.3 453.8,171.3 460.6,164.6 		"/>
		<polygon class="st3" points="457.7,164.6 451,171.3 451.8,171.3 458.6,164.6 		"/>
		<polygon class="st3" points="452.1,164.6 445.3,171.3 446.2,171.3 452.9,164.6 		"/>
		<polygon class="st3" points="453.8,171.3 454.7,171.3 461.4,164.6 461.4,164.6 460.6,164.6 		"/>
		<polygon class="st3" points="454.9,164.6 448.2,171.3 449,171.3 455.7,164.6 		"/>
		<polygon class="st3" points="460.4,171.3 461.4,170.3 461.4,169.5 459.5,171.3 		"/>
		<polygon class="st3" points="457.5,171.3 461.4,167.5 461.4,166.6 456.7,171.3 		"/>
		<polygon class="st3" points="417,111.6 409.7,118.9 409.7,119.7 417,112.4 		"/>
		<polygon class="st3" points="417,117.3 409.7,124.6 409.7,125.4 417,118.1 		"/>
		<polygon class="st3" points="389.5,164.6 382.8,171.3 383.6,171.3 390.4,164.6 		"/>
		<polygon class="st3" points="417,105.9 409.7,113.2 409.7,114.1 417,106.8 		"/>
		<polygon class="st3" points="134.9,70.6 128.1,77.3 129,77.3 135.7,70.6 		"/>
		<polygon class="st3" points="417.9,164.6 411.1,171.3 412,171.3 418.7,164.6 		"/>
		<polygon class="st3" points="40.7,164.7 34,171.4 34.9,171.4 41.6,164.7 		"/>
		<polygon class="st3" points="384.1,74.5 384.4,73.4 379.1,78.7 379.2,79.3 		"/>
		<polygon class="st3" points="133.8,117 127,123.8 127.9,123.8 134.6,117 		"/>
		<polygon class="st3" points="380.8,85.4 381,86.1 381.2,85.9 381.5,84.7 		"/>
		<polygon class="st3" points="136.6,117 129.9,123.8 130.7,123.8 137.4,117 		"/>
		<polygon class="st3" points="35.1,164.7 28.3,171.4 29.2,171.4 35.9,164.7 		"/>
		<polygon class="st3" points="383.4,77.1 379.6,80.9 379.8,81.6 383.1,78.3 		"/>
		<polygon class="st3" points="382.4,80.9 380.2,83.2 380.4,83.8 382.2,82.1 		"/>
		<polygon class="st3" points="37.9,164.7 31.2,171.4 32,171.4 38.8,164.7 		"/>
		<polygon class="st3" points="49.2,164.7 42.5,171.4 43.4,171.4 50.1,164.7 		"/>
		<polygon class="st3" points="52.1,164.7 45.3,171.4 46.2,171.4 52.9,164.7 		"/>
		<polygon class="st3" points="43.6,164.7 36.8,171.4 37.7,171.4 44.4,164.7 		"/>
		<polygon class="st3" points="46.4,164.7 39.7,171.4 40.5,171.4 47.3,164.7 		"/>
		<polygon class="st3" points="130.9,117 124.2,123.8 125.1,123.8 131.8,117 		"/>
		<polygon class="st3" points="22.8,157.1 15.5,164.4 15.5,165.3 22.8,158 		"/>
		<polygon class="st3" points="22.8,159.9 15.5,167.2 15.5,168.1 22.8,160.8 		"/>
		<polygon class="st3" points="22.8,151.4 15.5,158.7 15.5,159.6 22.8,152.3 		"/>
		<polygon class="st3" points="22.8,154.3 15.5,161.6 15.5,162.4 22.8,155.1 		"/>
		<polygon class="st3" points="22.8,162.8 15.5,170.1 15.5,170.9 22.8,163.6 		"/>
		<polygon class="st3" points="32.2,164.7 25.5,171.4 26.4,171.4 33.1,164.7 		"/>
		<polygon class="st3" points="29.4,164.7 22.7,171.4 23.5,171.4 30.3,164.7 		"/>
		<polygon class="st3" points="26.6,164.7 19.8,171.4 20.7,171.4 27.4,164.7 		"/>
		<polygon class="st3" points="23.7,164.7 17,171.4 17.9,171.4 24.6,164.7 		"/>
		<polygon class="st3" points="139.4,117 132.7,123.8 133.6,123.8 140.3,117 		"/>
		<polygon class="st3" points="116.8,117 110,123.8 110.9,123.8 117.6,117 		"/>
		<polygon class="st3" points="94.1,117 87.4,123.8 88.2,123.8 94.9,117 		"/>
		<polygon class="st3" points="96.9,117 90.2,123.8 91,123.8 97.8,117 		"/>
		<polygon class="st3" points="415.5,88.4 417,86.9 417,86.1 415.8,87.3 		"/>
		<polygon class="st3" points="412.2,102.3 411.9,103.4 417,98.3 417,97.4 		"/>
		<polygon class="st3" points="77.6,164.7 70.9,171.4 71.7,171.4 78.4,164.7 		"/>
		<polygon class="st3" points="413.7,95.9 417,92.6 417,91.7 414,94.8 		"/>
		<polygon class="st3" points="412.8,99.6 417,95.4 417,94.6 413.1,98.5 		"/>
		<polygon class="st3" points="99.8,117 93,123.8 93.9,123.8 100.6,117 		"/>
		<polygon class="st3" points="414.6,92.2 417,89.8 417,88.9 414.9,91 		"/>
		<polygon class="st3" points="105.4,117 98.7,123.8 99.5,123.8 106.3,117 		"/>
		<polygon class="st3" points="108.3,117 101.5,123.8 102.4,123.8 109.1,117 		"/>
		<polygon class="st3" points="102.6,117 95.9,123.8 96.7,123.8 103.4,117 		"/>
		<polygon class="st3" points="113.9,117 107.2,123.8 108,123.8 114.8,117 		"/>
		<polygon class="st3" points="417,84.1 417,83.2 416.7,83.6 416.4,84.7 		"/>
		<polygon class="st3" points="60.6,164.7 53.9,171.4 54.7,171.4 61.4,164.7 		"/>
		<polygon class="st3" points="417,100.2 411.3,106 411,107.1 417,101.1 		"/>
		<polygon class="st3" points="63.4,164.7 56.7,171.4 57.5,171.4 64.3,164.7 		"/>
		<polygon class="st3" points="66.3,164.7 59.5,171.4 60.4,171.4 67.1,164.7 		"/>
		<polygon class="st3" points="54.9,164.7 48.2,171.4 49,171.4 55.8,164.7 		"/>
		<polygon class="st3" points="128.1,117 121.4,123.8 122.2,123.8 128.9,117 		"/>
		<polygon class="st3" points="57.7,164.7 51,171.4 51.9,171.4 58.6,164.7 		"/>
		<polygon class="st3" points="125.3,117 118.5,123.8 119.4,123.8 126.1,117 		"/>
		<polygon class="st3" points="71.9,164.7 65.2,171.4 66,171.4 72.8,164.7 		"/>
		<polygon class="st3" points="74.8,164.7 68,171.4 68.9,171.4 75.6,164.7 		"/>
		<polygon class="st3" points="119.6,117 112.9,123.8 113.7,123.8 120.4,117 		"/>
		<polygon class="st3" points="122.4,117 115.7,123.8 116.5,123.8 123.3,117 		"/>
		<polygon class="st3" points="69.1,164.7 62.4,171.4 63.2,171.4 69.9,164.7 		"/>
		<polygon class="st3" points="22.8,46.6 15.5,53.9 15.5,54.7 22.8,47.4 		"/>
		<polygon class="st3" points="342.4,104 336.2,110.1 336.2,111 342.6,104.7 		"/>
		<polygon class="st3" points="22.8,80.6 15.5,87.9 15.5,88.7 22.8,81.4 		"/>
		<polygon class="st3" points="22.8,83.4 15.5,90.7 15.5,91.6 22.8,84.3 		"/>
		<polygon class="st3" points="106.5,70.6 99.8,77.3 100.6,77.3 107.4,70.6 		"/>
		<polygon class="st3" points="22.8,77.7 15.5,85 15.5,85.9 22.8,78.6 		"/>
		<polygon class="st3" points="22.8,72.1 15.5,79.4 15.5,80.2 22.8,72.9 		"/>
		<polygon class="st3" points="22.8,74.9 15.5,82.2 15.5,83.1 22.8,75.8 		"/>
		<polygon class="st3" points="22.8,91.9 15.5,99.2 15.5,100.1 22.8,92.8 		"/>
		<polygon class="st3" points="22.8,94.8 15.5,102 15.5,102.9 22.8,95.6 		"/>
		<polygon class="st3" points="22.8,86.2 15.5,93.5 15.5,94.4 22.8,87.1 		"/>
		<polygon class="st3" points="22.8,89.1 15.5,96.4 15.5,97.2 22.8,89.9 		"/>
		<polygon class="st3" points="103.7,70.6 97,77.3 97.8,77.3 104.5,70.6 		"/>
		<polygon class="st3" points="22.8,52.2 15.5,59.5 15.5,60.4 22.8,53.1 		"/>
		<polygon class="st3" points="22.8,57.9 15.5,65.2 15.5,66 22.8,58.8 		"/>
		<polygon class="st3" points="22.8,55.1 15.5,62.4 15.5,63.2 22.8,55.9 		"/>
		<polygon class="st3" points="112.2,70.6 105.5,77.3 106.3,77.3 113,70.6 		"/>
		<polygon class="st3" points="22.8,49.4 15.5,56.7 15.5,57.5 22.8,50.2 		"/>
		<polygon class="st3" points="22.8,60.7 15.5,68 15.5,68.9 22.8,61.6 		"/>
		<polygon class="st3" points="22.8,66.4 15.5,73.7 15.5,74.5 22.8,67.3 		"/>
		<polygon class="st3" points="109.4,70.6 102.6,77.3 103.5,77.3 110.2,70.6 		"/>
		<polygon class="st3" points="22.8,69.2 15.5,76.5 15.5,77.4 22.8,70.1 		"/>
		<polygon class="st3" points="22.8,63.6 15.5,70.9 15.5,71.7 22.8,64.4 		"/>
		<polygon class="st3" points="22.8,97.6 15.5,104.9 15.5,105.7 22.8,98.4 		"/>
		<polygon class="st3" points="336.2,96.8 339.5,93.5 339.3,92.9 336.2,96 		"/>
		<polygon class="st3" points="95.2,70.6 88.5,77.3 89.3,77.3 96,70.6 		"/>
		<polygon class="st3" points="22.8,131.6 15.5,138.9 15.5,139.7 22.8,132.5 		"/>
		<polygon class="st3" points="22.8,134.4 15.5,141.7 15.5,142.6 22.8,135.3 		"/>
		<polygon class="st3" points="22.8,125.9 15.5,133.2 15.5,134.1 22.8,126.8 		"/>
		<polygon class="st3" points="22.8,128.8 15.5,136.1 15.5,136.9 22.8,129.6 		"/>
		<polygon class="st3" points="22.8,123.1 15.5,130.4 15.5,131.2 22.8,123.9 		"/>
		<polygon class="st3" points="336.2,107.3 336.2,108.1 342,102.4 341.8,101.8 		"/>
		<polygon class="st3" points="22.8,137.3 15.5,144.6 15.5,145.4 22.8,138.1 		"/>
		<polygon class="st3" points="22.8,142.9 15.5,150.2 15.5,151.1 22.8,143.8 		"/>
		<polygon class="st3" points="22.8,140.1 15.5,147.4 15.5,148.3 22.8,141 		"/>
		<polygon class="st3" points="22.8,145.8 15.5,153.1 15.5,153.9 22.8,146.6 		"/>
		<polygon class="st3" points="22.8,106.1 15.5,113.4 15.5,114.2 22.8,106.9 		"/>
		<polygon class="st3" points="22.8,148.6 15.5,155.9 15.5,156.8 22.8,149.5 		"/>
		<polygon class="st3" points="336.2,94 338.9,91.3 338.7,90.7 336.2,93.1 		"/>
		<polygon class="st3" points="22.8,103.3 15.5,110.6 15.5,111.4 22.8,104.1 		"/>
		<polygon class="st3" points="336.2,102.5 340.7,98 340.5,97.3 336.2,101.6 		"/>
		<polygon class="st3" points="22.8,108.9 15.5,116.2 15.5,117.1 22.8,109.8 		"/>
		<polygon class="st3" points="336.2,99.6 340.1,95.8 339.9,95.1 336.2,98.8 		"/>
		<polygon class="st3" points="336.2,85.5 337.1,84.7 336.9,84 336.2,84.6 		"/>
		<polygon class="st3" points="336.4,82.4 336.3,81.8 336.2,81.8 336.2,82.6 		"/>
		<polygon class="st3" points="336.2,91.1 338.3,89.1 338.1,88.4 336.2,90.3 		"/>
		<polygon class="st3" points="336.2,88.3 337.7,86.9 337.5,86.2 336.2,87.5 		"/>
		<polygon class="st3" points="22.8,100.4 15.5,107.7 15.5,108.6 22.8,101.3 		"/>
		<polygon class="st3" points="100.8,70.6 94.1,77.3 95,77.3 101.7,70.6 		"/>
		<polygon class="st3" points="336.2,105.3 341.3,100.2 341.2,99.5 336.2,104.5 		"/>
		<polygon class="st3" points="22.8,120.3 15.5,127.6 15.5,128.4 22.8,121.1 		"/>
		<polygon class="st3" points="22.8,117.4 15.5,124.7 15.5,125.6 22.8,118.3 		"/>
		<polygon class="st3" points="98,70.6 91.3,77.3 92.1,77.3 98.9,70.6 		"/>
		<polygon class="st3" points="22.8,111.8 15.5,119.1 15.5,119.9 22.8,112.6 		"/>
		<polygon class="st3" points="22.8,114.6 15.5,121.9 15.5,122.7 22.8,115.4 		"/>
		<polygon class="st3" points="417,142.8 409.7,150.1 409.7,150.9 417,143.6 		"/>
		<polygon class="st3" points="159.9,96.6 152.6,103.9 152.6,104.7 159.9,97.4 		"/>
		<polygon class="st3" points="159.9,99.4 152.6,106.7 152.6,107.5 159.9,100.3 		"/>
		<polygon class="st3" points="159.9,93.7 152.6,101 152.6,101.9 159.9,94.6 		"/>
		<polygon class="st3" points="159.9,90.9 152.6,98.2 152.6,99 159.9,91.8 		"/>
		<polygon class="st3" points="159.9,110.7 152.6,118 152.6,118.9 159.9,111.6 		"/>
		<polygon class="st3" points="159.9,113.6 152.6,120.9 152.6,121.7 159.9,114.4 		"/>
		<polygon class="st3" points="159.9,88.1 152.6,95.4 152.6,96.2 159.9,88.9 		"/>
		<polygon class="st3" points="159.9,105.1 152.6,112.4 152.6,113.2 159.9,105.9 		"/>
		<polygon class="st3" points="159.9,107.9 152.6,115.2 152.6,116.1 159.9,108.8 		"/>
		<polygon class="st3" points="159.9,102.2 152.6,109.5 152.6,110.4 159.9,103.1 		"/>
		<polygon class="st3" points="159.9,68.2 152.6,75.5 152.6,76.4 159.9,69.1 		"/>
		<polygon class="st3" points="159.9,71.1 152.6,78.4 152.6,79.2 159.9,71.9 		"/>
		<polygon class="st3" points="159.9,59.7 152.6,67 152.6,67.9 159.9,60.6 		"/>
		<polygon class="st3" points="159.9,65.4 152.6,72.7 152.6,73.5 159.9,66.2 		"/>
		<polygon class="st3" points="159.9,62.6 152.6,69.9 152.6,70.7 159.9,63.4 		"/>
		<polygon class="st3" points="159.9,85.2 152.6,92.5 152.6,93.4 159.9,86.1 		"/>
		<polygon class="st3" points="159.9,82.4 152.6,89.7 152.6,90.5 159.9,83.2 		"/>
		<polygon class="st3" points="159.9,79.6 152.6,86.9 152.6,87.7 159.9,80.4 		"/>
		<polygon class="st3" points="159.9,116.4 152.6,123.7 152.6,124.6 159.9,117.3 		"/>
		<polygon class="st3" points="159.9,73.9 152.6,81.2 152.6,82 159.9,74.7 		"/>
		<polygon class="st3" points="159.9,76.7 152.6,84 152.6,84.9 159.9,77.6 		"/>
		<polygon class="st3" points="159.9,158.9 152.6,166.2 152.6,167.1 159.9,159.8 		"/>
		<polygon class="st3" points="174.1,164.6 167.3,171.3 168.2,171.3 174.9,164.6 		"/>
		<polygon class="st3" points="159.9,161.8 152.6,169.1 152.6,169.9 159.9,162.6 		"/>
		<polygon class="st3" points="159.9,156.1 152.6,163.4 152.6,164.2 159.9,156.9 		"/>
		<polygon class="st3" points="159.9,150.4 152.6,157.7 152.6,158.6 159.9,151.3 		"/>
		<polygon class="st3" points="159.9,153.3 152.6,160.6 152.6,161.4 159.9,154.1 		"/>
		<polygon class="st3" points="159.9,164.6 153.2,171.3 154,171.3 160.8,164.6 		"/>
		<polygon class="st3" points="86.8,118.6 86.8,119.5 89.3,117 88.4,117 		"/>
		<polygon class="st3" points="168.4,164.6 161.7,171.3 162.5,171.3 169.3,164.6 		"/>
		<polygon class="st3" points="171.2,164.6 164.5,171.3 165.4,171.3 172.1,164.6 		"/>
		<polygon class="st3" points="165.6,164.6 158.8,171.3 159.7,171.3 166.4,164.6 		"/>
		<polygon class="st3" points="159.9,147.6 152.6,154.9 152.6,155.7 159.9,148.4 		"/>
		<polygon class="st3" points="162.7,164.6 156,171.3 156.9,171.3 163.6,164.6 		"/>
		<polygon class="st3" points="159.9,127.8 152.6,135 152.6,135.9 159.9,128.6 		"/>
		<polygon class="st3" points="159.9,124.9 152.6,132.2 152.6,133.1 159.9,125.8 		"/>
		<polygon class="st3" points="159.9,144.8 152.6,152.1 152.6,152.9 159.9,145.6 		"/>
		<polygon class="st3" points="159.9,130.6 152.6,137.9 152.6,138.7 159.9,131.4 		"/>
		<polygon class="st3" points="159.9,122.1 152.6,129.4 152.6,130.2 159.9,122.9 		"/>
		<polygon class="st3" points="159.9,119.2 152.6,126.5 152.6,127.4 159.9,120.1 		"/>
		<polygon class="st3" points="159.9,133.4 152.6,140.7 152.6,141.6 159.9,134.3 		"/>
		<polygon class="st3" points="159.9,141.9 152.6,149.2 152.6,150.1 159.9,142.8 		"/>
		<polygon class="st3" points="159.9,139.1 152.6,146.4 152.6,147.2 159.9,139.9 		"/>
		<polygon class="st3" points="159.9,136.3 152.6,143.6 152.6,144.4 159.9,137.1 		"/>
		<polygon class="st3" points="159.9,56.9 152.6,64.2 152.6,65 159.9,57.7 		"/>
		<polygon class="st3" points="86.8,70.6 86.8,71.3 87.5,70.6 		"/>
		<polygon class="st3" points="159.9,39.9 152.6,47.2 152.6,48 159.9,40.7 		"/>
		<polygon class="st3" points="159.9,42.7 152.6,50 152.6,50.9 159.9,43.6 		"/>
		<polygon class="st3" points="86.8,73.3 86.8,74.1 90.4,70.6 89.5,70.6 		"/>
		<polygon class="st3" points="159.9,37 152.6,44.3 152.6,45.2 159.9,37.9 		"/>
		<polygon class="st3" points="159.9,51.2 152.6,58.5 152.6,59.4 159.9,52.1 		"/>
		<polygon class="st3" points="159.9,54.1 152.6,61.3 152.6,62.2 159.9,54.9 		"/>
		<polygon class="st3" points="159.9,48.4 152.6,55.7 152.6,56.5 159.9,49.2 		"/>
		<polygon class="st3" points="159.9,45.5 152.6,52.8 152.6,53.7 159.9,46.4 		"/>
		<polygon class="st3" points="237.5,50.2 230.2,57.5 230.2,58.3 237.5,51 		"/>
		<polygon class="st3" points="237.5,47.3 230.2,54.6 230.2,55.5 237.5,48.2 		"/>
		<polygon class="st3" points="237.5,41.7 230.2,49 230.2,49.8 237.5,42.5 		"/>
		<polygon class="st3" points="237.5,44.5 230.2,51.8 230.2,52.6 237.5,45.3 		"/>
		<polygon class="st3" points="237.5,53 230.2,60.3 230.2,61.1 237.5,53.9 		"/>
		<polygon class="st3" points="237.5,55.8 230.2,63.1 230.2,64 237.5,56.7 		"/>
		<polygon class="st3" points="237.5,67.2 230.2,74.5 230.2,75.3 237.5,68 		"/>
		<polygon class="st3" points="237.5,64.3 230.2,71.6 230.2,72.5 237.5,65.2 		"/>
		<polygon class="st3" points="237.5,61.5 230.2,68.8 230.2,69.6 237.5,62.4 		"/>
		<polygon class="st3" points="237.5,58.7 230.2,66 230.2,66.8 237.5,59.5 		"/>
		<polygon class="st3" points="267.6,164.6 260.9,171.3 261.7,171.3 268.5,164.6 		"/>
		<polygon class="st3" points="237.5,38.8 230.2,46.1 230.2,47 237.5,39.7 		"/>
		<polygon class="st3" points="264.8,164.6 258.1,171.3 258.9,171.3 265.6,164.6 		"/>
		<polygon class="st3" points="259.1,164.6 252.4,171.3 253.2,171.3 260,164.6 		"/>
		<polygon class="st3" points="262,164.6 255.2,171.3 256.1,171.3 262.8,164.6 		"/>
		<polygon class="st3" points="270.5,164.6 263.7,171.3 264.6,171.3 271.3,164.6 		"/>
		<polygon class="st3" points="236.8,34.2 236.4,34.2 230.2,40.5 230.2,41.3 237,34.4 		"/>
		<polygon class="st3" points="273.3,164.6 266.6,171.3 267.4,171.3 274.1,164.6 		"/>
		<polygon class="st3" points="237.5,36 230.2,43.3 230.2,44.1 237.5,36.8 		"/>
		<polygon class="st3" points="276.1,164.6 269.4,171.3 270.2,171.3 277,164.6 		"/>
		<polygon class="st3" points="74.5,171.4 78.5,167.5 78.5,166.6 73.7,171.4 		"/>
		<polygon class="st3" points="18.6,34.2 18.1,34.2 15.5,36.9 15.5,37.7 18.8,34.4 		"/>
		<polygon class="st3" points="15.7,34.2 15.5,34.2 15.5,34.9 15.9,34.4 		"/>
		<polygon class="st3" points="237.5,70.9 237.5,70 230.2,77.3 230.2,77.4 230.9,77.4 		"/>
		<polygon class="st3" points="140.3,77.3 141.3,76.3 141.3,75.5 139.5,77.3 		"/>
		<polygon class="st3" points="152.6,36.7 154.8,34.4 154.6,34.2 154.2,34.2 152.6,35.8 		"/>
		<polygon class="st3" points="137.5,77.3 141.3,73.5 141.3,72.7 136.6,77.3 		"/>
		<polygon class="st3" points="152.6,42.4 159.9,35.1 159.9,34.2 159.9,34.2 152.6,41.5 		"/>
		<polygon class="st3" points="152.6,39.5 157.7,34.4 157.5,34.2 157,34.2 152.6,38.7 		"/>
		<polygon class="st3" points="136.4,123.8 141.5,118.6 141.5,117.8 135.5,123.8 		"/>
		<polygon class="st3" points="77.4,171.4 78.5,170.3 78.5,169.4 76.5,171.4 		"/>
		<polygon class="st3" points="139.2,123.8 141.5,121.4 141.5,120.6 138.4,123.8 		"/>
		<polygon class="st3" points="141.5,123.8 141.5,123.4 141.2,123.8 		"/>
		<polygon class="st3" points="227.1,117.2 220.4,123.9 221.3,123.9 228,117.2 		"/>
		<polygon class="st3" points="230,117.2 223.3,123.9 224.1,123.9 230.8,117.2 		"/>
		<polygon class="st3" points="224.3,117.2 217.6,123.9 218.4,123.9 225.2,117.2 		"/>
		<polygon class="st3" points="221.5,117.2 214.7,123.9 215.6,123.9 222.3,117.2 		"/>
		<polygon class="st3" points="218.6,117.2 211.9,123.9 212.8,123.9 219.5,117.2 		"/>
		<polygon class="st3" points="232.8,117.2 226.1,123.9 226.9,123.9 233.7,117.2 		"/>
		<polygon class="st3" points="237.5,123.9 230.2,131.2 230.2,132 237.5,124.7 		"/>
		<polygon class="st3" points="237.5,121 230.2,128.3 230.2,129.2 237.5,121.9 		"/>
		<polygon class="st3" points="235.6,117.2 228.9,123.9 229.8,123.9 236.5,117.2 		"/>
		<polygon class="st3" points="237.5,126.7 230.2,134 230.2,134.8 237.5,127.6 		"/>
		<polygon class="st3" points="237.5,118.2 230.2,125.5 230.2,126.3 237.5,119 		"/>
		<polygon class="st3" points="185.4,164.6 178.7,171.3 179.5,171.3 186.3,164.6 		"/>
		<polygon class="st3" points="188.2,164.6 181.5,171.3 182.4,171.3 189.1,164.6 		"/>
		<polygon class="st3" points="179.7,164.6 173,171.3 173.9,171.3 180.6,164.6 		"/>
		<polygon class="st3" points="191.1,164.6 184.4,171.3 185.2,171.3 191.9,164.6 		"/>
		<polygon class="st3" points="182.6,164.6 175.9,171.3 176.7,171.3 183.4,164.6 		"/>
		<polygon class="st3" points="215.8,117.2 209.6,123.4 209.6,123.9 209.9,123.9 216.7,117.2 		"/>
		<polygon class="st3" points="199.6,164.6 192.9,171.3 193.7,171.3 200.4,164.6 		"/>
		<polygon class="st3" points="196.8,164.6 190,171.3 190.9,171.3 197.6,164.6 		"/>
		<polygon class="st3" points="193.9,164.6 187.2,171.3 188,171.3 194.8,164.6 		"/>
		<polygon class="st3" points="239.3,164.6 232.5,171.3 233.4,171.3 240.1,164.6 		"/>
		<polygon class="st3" points="237.5,163.6 230.2,170.9 230.2,171.3 230.6,171.3 237.5,164.4 		"/>
		<polygon class="st3" points="242.1,164.6 235.4,171.3 236.2,171.3 243,164.6 		"/>
		<polygon class="st3" points="237.5,157.9 230.2,165.2 230.2,166 237.5,158.7 		"/>
		<polygon class="st3" points="237.5,160.7 230.2,168 230.2,168.9 237.5,161.6 		"/>
		<polygon class="st3" points="176.9,164.6 170.2,171.3 171,171.3 177.8,164.6 		"/>
		<polygon class="st3" points="237.5,129.5 230.2,136.8 230.2,137.7 237.5,130.4 		"/>
		<polygon class="st3" points="253.4,164.6 246.7,171.3 247.6,171.3 254.3,164.6 		"/>
		<polygon class="st3" points="247.8,164.6 241,171.3 241.9,171.3 248.6,164.6 		"/>
		<polygon class="st3" points="244.9,164.6 238.2,171.3 239.1,171.3 245.8,164.6 		"/>
		<polygon class="st3" points="256.3,164.6 249.6,171.3 250.4,171.3 257.1,164.6 		"/>
		<polygon class="st3" points="250.6,164.6 243.9,171.3 244.7,171.3 251.5,164.6 		"/>
		<polygon class="st3" points="237.5,138 230.2,145.3 230.2,146.2 237.5,138.9 		"/>
		<polygon class="st3" points="237.5,140.9 230.2,148.2 230.2,149 237.5,141.7 		"/>
		<polygon class="st3" points="237.5,155.1 230.2,162.3 230.2,163.2 237.5,155.9 		"/>
		<polygon class="st3" points="237.5,132.4 230.2,139.7 230.2,140.5 237.5,133.2 		"/>
		<polygon class="st3" points="237.5,135.2 230.2,142.5 230.2,143.4 237.5,136.1 		"/>
		<polygon class="st3" points="237.5,152.2 230.2,159.5 230.2,160.4 237.5,153.1 		"/>
		<polygon class="st3" points="237.5,149.4 230.2,156.7 230.2,157.5 237.5,150.2 		"/>
		<polygon class="st3" points="237.5,143.7 230.2,151 230.2,151.9 237.5,144.6 		"/>
		<polygon class="st3" points="237.5,146.5 230.2,153.8 230.2,154.7 237.5,147.4 		"/>
		<polygon class="st3" points="237.5,73.7 237.5,72.8 232.9,77.4 233.8,77.4 		"/>
		<polygon class="st3" points="209.6,120.5 209.6,121.4 213.8,117.2 213,117.2 		"/>
		<polygon class="st3" points="235.8,77.4 236.6,77.4 237.5,76.5 237.5,75.7 		"/>
		<polygon class="st3" points="211,117.2 210.1,117.2 209.6,117.7 209.6,118.5 		"/>
		<polygon class="st4" points="78.4,164.7 78.5,164.7 78.5,164.6 		"/>
		<polygon class="st4" points="160.5,34.4 160.3,34.2 159.9,34.2 159.9,35.1 		"/>
	</g>
</g>
<g id="Layer_3">
	<path class="st5" d="M359.5,164.1l-23.8-86v86h-37.9V27h67.1l16.2,61.3L396.6,27h69.8l0,137.1h-48.9v-86l-20.8,86H359.5
		L359.5,164.1z M23.3,164.2V27h125.8v43.1H86.3l0,16.5h63v30h-63v47.7H23.3L23.3,164.2z M238,77.9V27h48.7v137.1H238v-47.4h-28.8
		v47.4h-48.7V27h48.7v50.9H238L238,77.9z"/>
</g>
</svg>
