<?xml version="1.0" encoding="utf-8"?>
<!-- Generator: Adobe Illustrator 19.2.0, SVG Export Plug-In . SVG Version: 6.00 Build 0)  -->
<svg version="1.1"
	 id="svg3145" inkscape:version="0.48.1 " sodipodi:docname="Neues Dokument 3" xmlns:cc="http://creativecommons.org/ns#" xmlns:dc="http://purl.org/dc/elements/1.1/" xmlns:inkscape="http://www.inkscape.org/namespaces/inkscape" xmlns:rdf="http://www.w3.org/1999/02/22-rdf-syntax-ns#" xmlns:sodipodi="http://sodipodi.sourceforge.net/DTD/sodipodi-0.dtd" xmlns:svg="http://www.w3.org/2000/svg"
	 xmlns="http://www.w3.org/2000/svg" xmlns:xlink="http://www.w3.org/1999/xlink" x="0px" y="0px" viewBox="0 0 230 80"
	 style="enable-background:new 0 0 230 80;" xml:space="preserve">
<style type="text/css">
	.st0{fill:#000001;}
</style>
<sodipodi:namedview  bordercolor="#666666" borderopacity="1.0" fit-margin-bottom="0" fit-margin-left="0" fit-margin-right="0" fit-margin-top="0" id="base" inkscape:current-layer="layer1" inkscape:cx="107.94999" inkscape:cy="34.090002" inkscape:document-units="px" inkscape:pageopacity="0.0" inkscape:pageshadow="2" inkscape:window-height="678" inkscape:window-maximized="1" inkscape:window-width="1024" inkscape:window-x="-4" inkscape:window-y="-4" inkscape:zoom="4.1795793" pagecolor="#ffffff" showgrid="false">
	</sodipodi:namedview>
<g id="g96">
	<g id="g102" transform="translate(417.0602,352.9282)">
		<path id="path104" inkscape:connector-curvature="0" class="st0" d="M-387.5-345.1c0,0,0.3,0,0.3,0l0.9,22.5l-0.3,0
			c-0.6-2.6-2.4-22.4-9.2-22.4c-5.3,0-7,24.3-7,32.4c0,10.5,1.3,32.7,7.2,32.7c2.8,0,4.4-4.9,4.4-11.3v-20.6h-3.2v-0.8h12.8v0.8
			h-3.2v32.2c0,0-0.4,0-0.4,0c-0.5-1.3-0.5-4.1-2.6-4.1c-2.3,0-4.8,4.8-8,4.8c-10.6,0-14.3-19.6-14.3-33.6
			c0-11.7,4.3-33.1,14.2-33.1c1.7,0,2.9,0.4,4.2,2.4c1,1.4,2.8,1.7,3.6-0.1C-387.7-343.9-387.6-344.6-387.5-345.1"/>
	</g>
	<g id="g106" transform="translate(530.791,301.8408)">
		<path id="path108" inkscape:connector-curvature="0" class="st0" d="M-357.8-229.6v-63.3h-2.8v-0.8h12v0.8h-2.8l0,63.3h2.8v0.8
			h-12v-0.8H-357.8v-63.3"/>
	</g>
	<g id="g110" transform="translate(503.0634,301.8449)">
		<path id="path112" inkscape:connector-curvature="0" class="st0" d="M-365-229.6h7.5c3.5-0.1,7.9-3.4,7.9-12.7c0-1.8,0-3.6,0-5.4
			l0.7,0v18.9l-22.9,0l15.5-64h-7.2c-4.6,0-7.1,6.9-7.1,13.3c0,1.6-0.1,4.8-0.1,4.8l-0.6,0v-18.9h22.2L-365-229.6z"/>
	</g>
	<g id="g114" transform="translate(442.2847,351.9827)">
		<path id="path116" inkscape:connector-curvature="0" class="st0" d="M-380.9-343v31.4c1.3,0,3.5,0.1,5.7-2.8
			c2.1-2.7,2.9-9.5,2.9-14.6c0-5.4-2.7-14.1-6.2-14.1L-380.9-343z M-390.1-343.7l13.5,0c6.4,0,10.6,7.2,10.6,15.8
			c0,8.6-3.5,16.6-8.9,16.6c-0.7,0-0.7,0.4,0,0.4c3.2,0,5.7,3.7,6.2,4.7c2,4,0.6,22.4,2.6,24.2c1.7,1.5,2.9-0.9,3.1-1.2l0.2,0.1
			c0,0.2-1.5,4.9-5.1,4.9c-3,0-4.5-3.7-5-6c-0.7-3.8-0.5-15.3-0.9-17.7c-0.3-2-1.2-8.1-4.1-8.6c-1.3-0.2-1.7-0.2-3.1-0.2
			c0,0,0,31,0,31h2.8v0.8h-12.4v-0.8h3.2l0-63.2h-2.8L-390.1-343.7L-390.1-343.7z"/>
	</g>
	<g id="g118" transform="translate(471.1882,316.8653)">
		<path id="path120" inkscape:connector-curvature="0" class="st0" d="M-373.4-263.6h9l-4.4-25.3L-373.4-263.6z M-377.9-244.6
			l12.2-64.9l11.3,64.9l2.6,0v0.8h-11.7v-0.8h2.6l-3.2-18.1h-9.3l-3.3,18.1h3.3v0.8h-7.1v-0.8L-377.9-244.6z"/>
	</g>
	<g id="g122" transform="translate(553.2907,316.8653)">
		<path id="path124" inkscape:connector-curvature="0" class="st0" d="M-351.9-263.6h9l-4.4-25.3L-351.9-263.6z M-356.4-244.6
			l12.2-64.9l11.3,64.9l2.6,0v0.8h-11.7v-0.8h2.6l-3.2-18.1h-9.3l-3.3,18.1h3.3v0.8h-7.1v-0.8L-356.4-244.6z"/>
	</g>
</g>
</svg>
