<?xml version="1.0" encoding="utf-8"?>
<!-- Generator: Adobe Illustrator 19.2.0, SVG Export Plug-In . SVG Version: 6.00 Build 0)  -->
<svg version="1.1" id="Layer_1" xmlns="http://www.w3.org/2000/svg" xmlns:xlink="http://www.w3.org/1999/xlink" x="0px" y="0px"
	 viewBox="0 0 765.4 198.4" style="enable-background:new 0 0 765.4 198.4;" xml:space="preserve">
<style type="text/css">
	.st0{clip-path:url(#SVGID_2_);}
	.st1{clip-path:url(#SVGID_4_);}
	.st2{clip-path:url(#SVGID_6_);}
	.st3{clip-path:url(#SVGID_6_);fill:#E30613;}
	.st4{clip-path:url(#SVGID_8_);fill:#E30613;}
</style>
<g>
	<defs>
		<rect id="SVGID_1_" x="28.2" y="28.3" width="709" height="141.8"/>
	</defs>
	<clipPath id="SVGID_2_">
		<use xlink:href="#SVGID_1_"  style="overflow:visible;"/>
	</clipPath>
	<path class="st0" d="M448,150.4h-17.9l-8.1-32c-1.6-6.4-3.7-15.4-4.3-19.3c-0.6,3.9-2.8,12.9-4.3,19.3l-8.1,32h-17.9L364,68.9h21.7
		l7.1,30.1c1.4,6.2,3.3,14.8,3.9,18.6c0.6-4,2.6-12.3,4.3-18.6l8.1-30.1h17.7L435,99c1.7,6.4,3.7,14.6,4.3,18.6
		c0.6-3.9,2.5-12.4,3.9-18.6l7.1-30.1h21.1L448,150.4"/>
	<path class="st0" d="M630.3,93.9c-3.4-3.1-7.6-5.3-12.4-5.3c-8.4,0-13.8,3.6-13.8,17.7v44.1h-21.4V68.9h21.4v5.4
		c3.7-3.9,9.2-7.1,16.8-7.1c7,0,12.3,2.8,15.1,5.7L630.3,93.9"/>
	<polyline class="st0" points="638.4,150.4 638.4,47.9 659.9,37.2 659.9,150.4 638.4,150.4 	"/>
</g>
<g>
	<defs>
		<rect id="SVGID_3_" x="28.2" y="29.4" width="708.8" height="140.6"/>
	</defs>
	<clipPath id="SVGID_4_">
		<use xlink:href="#SVGID_3_"  style="overflow:visible;"/>
	</clipPath>
	<g class="st1">
		<defs>
			<rect id="SVGID_5_" x="28.2" y="28.3" width="709" height="141.8"/>
		</defs>
		<clipPath id="SVGID_6_">
			<use xlink:href="#SVGID_5_"  style="overflow:visible;"/>
		</clipPath>
		<path class="st2" d="M715.6,150.4v-5.1c-4,3.6-9.5,6.8-17.2,6.8c-17.4,0-31.7-13-31.7-43.5c0-24.4,11.5-41.5,31.7-41.5
			c7.1,0,13.4,2.8,17.2,6.4V47.9L737,37.2v113.2H715.6 M715.6,94.3c-3.3-4.5-8.2-7-14.4-7c-8.2,0-12.7,7.1-12.7,20.8
			c0,16.8,5.6,23.8,14,23.8c6.7,0,10.1-2.8,13.2-6.8V94.3z"/>
		<path class="st3" d="M490.5,170.1c-0.6,0-1.2-0.1-1.7-0.4c-1.3-0.7-2-2.1-1.8-3.5l2-17.5c-10-8.6-16.3-21-17.4-34.2
			c-1-13.4,3.2-26.3,11.9-36.5c8.7-10.2,20.9-16.4,34.2-17.4c1.3-0.1,2.7-0.2,4-0.2c26,0,48,20.3,50,46.3
			c2.2,27.6-18.5,51.8-46.1,54c-6.5,0.5-13.1-0.3-19.3-2.2l-13.5,11C492.1,169.8,491.3,170.1,490.5,170.1 M521.7,67.5
			c-1.1,0-2.3,0-3.4,0.1c-11.5,0.9-21.9,6.2-29.4,14.9c-7.5,8.7-11.1,19.9-10.2,31.3c0.9,11.9,6.9,23,16.2,30.4c1,0.8,1.5,2,1.3,3.2
			l-1.2,10.7l8.3-6.7c1-0.8,2.3-1,3.5-0.6c5.8,2.1,12,3,18.2,2.5c23.7-1.9,41.4-22.6,39.5-46.3C562.8,84.9,544,67.5,521.7,67.5z"/>
	</g>
</g>
<g>
	<defs>
		<rect id="SVGID_7_" x="28.2" y="28.3" width="709" height="141.8"/>
	</defs>
	<clipPath id="SVGID_8_">
		<use xlink:href="#SVGID_7_"  style="overflow:visible;"/>
	</clipPath>
	<path class="st4" d="M351.6,118.3c-2.1,11-6.9,17.2-13.9,17.2c-6.4,0-9.4-4.5-9.4-12V73.5h23l0.8-4h-23.8V41.7h-1.6
		C320.2,57.9,306,68,289,71.6v1.9h8l-0.5,49.1c-0.2,19,11.5,27.7,26.6,27.7c20.6,0,28.2-15.8,30.6-31.2L351.6,118.3 M256.1,105.4
		v17.7c-0.2,7.8-3,15-9.9,15c-5.7,0-8.3-5.4-8.3-13.1c0-10,3.5-16.3,12.4-18.2L256.1,105.4z M299.6,142.6c-1.1,0.3-2.4,0.3-3.3,0.3
		c-8.1,0-8.9-5.9-8.9-16.7c0-11.8,0.3-21.4,0.3-30.1c0-20.1-13.9-28.1-41.3-28.1c-20.7,0-35.1,7.7-35.1,20.4
		c0,8.4,7.3,13.7,16.1,13.7c8.4,0,15.1-3.2,18.8-9.9c-1.1,0.3-2.2,0.5-3.2,0.5c-4.9,0-7.8-3.2-7.8-10c0-6.7,3.8-11.8,10.4-11.8
		c8.1,0,10.5,7.5,10.5,14.8v16.9l-12.1,2.2c-19.1,3.5-36.7,6.9-36.7,25c0,13.7,11.3,20.1,23.8,20.1c13.5,0,22.6-6.5,25.5-17.2
		c0,0.5,0.2,2.7,0.3,3.3c1.6,8.8,8.3,14.3,22.3,14.3c8,0,16.1-3,20.4-7.5V142.6z M157.3,102.2c0.3-18.8,3.2-31.6,10.7-31.6
		c7.7,0,8.6,13.2,8.6,31.6H157.3z M168,68c-23.4,0-42.9,15.9-42.9,41.3c0,26.1,19.1,41.1,42.6,41.1c18.2,0,33-9.9,37.9-26.8l-1-0.5
		c-5.1,9.1-13.1,12.8-22.3,12.8c-14.7,0-25-10.8-25-30.4h49.4C206.7,84.7,194.3,68,168,68 M28.2,29.4v0.3c7.5,3.8,9.4,6.4,9.4,17.4
		v84.3c0,10.5-0.3,12.3-7,17.1v0.3h45.9v-0.3c-6.7-4.8-7-6.5-7-17.1v-29.6c0-13.6,4.8-19,11.6-19c6.4,0,9.4,4.9,9.4,11.3v37.3
		c0,10.5-0.3,12.3-7,17.1v0.3h45.9v-0.3c-6.7-4.8-7-6.5-7-17.1V95.5c0-14.8-7.5-27.6-25.3-27.6c-13.6,0-23.8,7.8-27.6,22V29.4H28.2z
		"/>
</g>
</svg>
