<?xml version="1.0" encoding="utf-8"?>
<!-- Generator: Adobe Illustrator 19.2.0, SVG Export Plug-In . SVG Version: 6.00 Build 0)  -->
<svg version="1.1" id="Layer_1" xmlns="http://www.w3.org/2000/svg" xmlns:xlink="http://www.w3.org/1999/xlink" x="0px" y="0px"
	 viewBox="0 0 350 70" style="enable-background:new 0 0 350 70;" xml:space="preserve">
<style type="text/css">
	.st0{enable-background:new    ;}
	.st1{fill:#F29EC4;}
</style>
<g>
	<g class="st0">
		<g>
			<path class="st1" d="M322.6,63.6c6,0,8.8-3.2,11.4-11.2l11-33.6h-10.8l-5.7,20.8l-6-20.8h-11l11.8,33.8c-0.7,1.1-1.4,1.4-2.4,1.4
				c-1.2,0-2.9-0.7-4.6-1.8l-3.3,8.5C315.7,62.4,318.9,63.6,322.6,63.6 M298.1,43.9c-3.4,0-6.1-3.2-6.1-7.8v-0.1
				c0-4.5,2.7-7.8,6.1-7.8c3.4,0,6.2,3.2,6.2,7.8V36C304.3,40.7,301.6,43.9,298.1,43.9 M301.4,54c7.1,0,13.3-6.8,13.3-18v-0.1
				c0-11-6.2-17.8-13.3-17.8c-4.5,0-7,2.5-9.1,5.4V6.9h-10.5v46.3h10.5V49C294.2,51.6,296.8,54,301.4,54 M265,46.4
				c-2.2,0-3.7-1.4-3.7-3.8v-0.1c0-2.5,1.8-4.3,4.8-4.3c1.6,0,3.1,0.4,4.1,0.9v1.6C270.2,44.2,268,46.4,265,46.4 M261.2,54
				c3.9,0,6.8-1.7,8.8-4.3v3.6h10.4V33.4c0-4.8-0.9-8.4-3.2-11c-2.4-2.7-6-4.2-11.4-4.2c-5.2,0-8.8,1.1-12.1,2.7l2.2,8.5
				c2.7-1.2,5.1-1.9,8.3-1.9c4.1,0,6,2,6,5.6v0.6c-1.7-0.7-4.4-1.3-7.2-1.3c-7,0-11.8,3.7-11.8,10.8v0.1
				C251.1,50.2,255.5,54,261.2,54 M226.5,43.3v-8.2h8.2c3.6,0,5.3,1.6,5.3,4v0.1c0,2.6-1.9,4.1-5.2,4.1H226.5z M226.5,25.6v-8.7h7
				c3.2,0,4.9,1.4,4.9,3.8v0.1c0,2.6-1.8,4.7-5.1,4.7L226.5,25.6L226.5,25.6z M216,53.2h20c9.3,0,14.7-4.6,14.7-12.3v-0.1
				c0-6.1-3-9.9-7.7-11.7c3.4-1.7,6-5.6,6-10.8v-0.1c0-3.1-0.9-5.4-2.5-7.2c-2.3-2.6-5.7-4-10.6-4H216L216,53.2L216,53.2z
				 M163.2,53.2h10.5V42.5c0-8,3.1-11.6,8.6-11.6h0.9V18.2c-5-0.3-7.8,2.8-9.5,7.5v-6.9h-10.5V53.2z M142.3,33.2
				c0.6-3.8,2.4-6.2,5.2-6.2c2.9,0,4.8,2.4,5.2,6.2H142.3z M148.4,54.1c6,0,10.2-2.8,13-7l-5.8-5.5c-2.2,2.4-4.2,3.5-6.7,3.5
				c-3.3,0-5.7-1.9-6.5-5.7h20.1c0.1-0.8,0.1-1.7,0.1-2.5c0-10.1-4.8-18.9-15.1-18.9c-8.9,0-15.1,8-15.1,18v0.1
				C132.3,46.9,139,54.1,148.4,54.1 M101.9,53.2h10.5V34.6c0-3.8,1.9-5.8,4.4-5.8c2.5,0,4.2,2,4.2,5.8v18.7h10.5V30.7
				c0-7.8-3.8-12.7-10.2-12.7c-4.3,0-7,2.6-9,5.5V6.9h-10.5V53.2z M93.4,53.9c2.9,0,5.4-0.8,7.3-2v-9.5c-1.3,0.7-2.6,1.1-4,1.1
				c-1.9,0-2.9-1-2.9-3.4V28.5h7v-9.7h-7V8.6l-10.5,2.5v7.6h-3.6v9.7h3.6v14C83.3,50.7,87,53.9,93.4,53.9 M63.9,43.8
				c-3.7,0-6.4-3.6-6.4-7.8v-0.1c0-4.1,2.4-7.6,6.3-7.6c3.7,0,6.4,3.6,6.4,7.8v0.1C70.1,40.3,67.7,43.8,63.9,43.8 M63.7,54.1
				c9.7,0,16.6-8.2,16.6-18v-0.1c0-9.8-6.9-17.9-16.5-17.9c-9.7,0-16.6,8.2-16.6,18v0.1C47.2,46,54.1,54.1,63.7,54.1 M5,53.2h10.5
				V27.7l9.9,17.3h0.2l9.9-17.5v25.6h10.7V7H34.9l-9.3,18.9L16.4,7H5V53.2z"/>
		</g>
	</g>
	<path class="st1" d="M208.1,27.4l3.9-5.5l-1.6-1.3L201.5,33l1.5,1.3l3.7-5.1c3.6,2.4,5.9,5.8,5.9,10.2c0,7.3-6.3,12.8-14.4,12.8
		c-8.2,0-14.4-5.5-14.4-12.8c0-6.6,5-11.6,12.1-12.6l1.2-2.7c-0.3,0-0.5,0-0.9-0.1c-4.1-0.4-6.9-4-6.9-7.8c0-5.1,3.3-7.9,7.8-7.9
		c3.9,0,6.8,2.9,7.6,6.3l1.8-1.1c-1.3-3.7-5-7.2-9.4-7.2c-5.4,0-10.3,3.7-10.3,10c0,3.5,2,7.3,5.6,8.9c-6.3,2.1-10.8,7.7-10.8,14.2
		c0,8.4,7.4,15.1,16.4,15.1c9.1,0,16.4-6.8,16.4-15.1C214.7,34.5,212.1,30.2,208.1,27.4"/>
</g>
</svg>
