<?xml version="1.0" encoding="utf-8"?>
<!-- Generator: Adobe Illustrator 19.2.0, SVG Export Plug-In . SVG Version: 6.00 Build 0)  -->
<svg version="1.1" id="Layer_1" xmlns="http://www.w3.org/2000/svg" xmlns:xlink="http://www.w3.org/1999/xlink" x="0px" y="0px"
	 viewBox="0 0 765.4 198.4" style="enable-background:new 0 0 765.4 198.4;" xml:space="preserve">
<style type="text/css">
	.st0{fill:#0EA6E0;}
	.st1{fill:#EB84B4;}
	.st2{fill:#00A663;}
	.st3{fill:#00A3DF;}
	.st4{fill:#D680B3;}
</style>
<g>
	<rect x="487.8" y="100.7" width="17" height="70.1"/>
	<polygon points="704.8,100.7 704.8,170.8 721.5,170.8 721.5,143.6 748.6,143.6 748.6,129.6 721.5,129.6 721.5,115.2 750.9,115.2 
		750.9,100.7 	"/>
	<polygon class="st0" points="129,170.8 178,170.8 178,156.4 129,156.3 	"/>
	<polygon class="st0" points="129,100.7 129,115.2 178,115.2 178,100.7 	"/>
	<polygon class="st0" points="129,128.5 129,143 178,143 178,128.5 	"/>
	<polygon class="st1" points="587.4,170.8 636.3,170.8 636.3,156.4 587.4,156.3 	"/>
	<polygon class="st1" points="587.4,100.7 587.4,115.2 636.3,115.2 636.3,100.7 	"/>
	<polygon class="st1" points="587.4,128.5 587.4,143 636.3,143 636.3,128.5 	"/>
	<g>
		<path d="M39.4,115.2H31v41h8c12.1,0,23.3-4.9,23.3-20.6C62.3,119.8,51.1,115.2,39.4,115.2 M40.6,170.8H14.4v-70.1h25.3
			c19.9,0,40.1,8.3,40.1,34.9C79.9,160.2,59.9,170.8,40.6,170.8"/>
		<path d="M267.9,141.1h-9.4v16h9.5c5.4,0,11.9-1.5,11.9-8.3C279.9,143,275.1,141.1,267.9,141.1 M266.8,114.2h-8.3v14.5h9.1
			c6.3,0,10-2.7,10-7.6C277.6,116.3,273.9,114.2,266.8,114.2 M270.1,170.8h-27.9v-70.1h27.9c10.9,0,23.9,3.9,23.9,18
			c0,7.7-4.7,12.9-11.5,15.1v0.2c8,1.4,14.4,7.1,14.4,16.3C296.8,165.7,283.4,170.8,270.1,170.8"/>
		<path d="M379.6,114.4h-9v16.3h8c5.4,0,12.3-1.4,12.3-8.5C390.8,115.7,384.6,114.4,379.6,114.4 M391.5,170.8L376.4,143h-5.7v27.8
			H354v-70.1h26.7c13.5,0,26.8,5.2,26.8,21.2c0,9.4-5.5,16.1-14.6,18.9l18.3,30H391.5z"/>
	</g>
	<polygon points="331.2,34.8 331.2,62.7 322.7,62.7 322.7,34.8 312.8,34.8 312.8,27.6 341.1,27.6 341.1,34.8 	"/>
	<polygon class="st2" points="428.1,55.4 428.1,62.7 452.5,62.7 452.5,55.4 	"/>
	<rect x="428.1" y="27.6" class="st2" width="24.5" height="7.2"/>
	<rect x="428.1" y="41.5" class="st2" width="24.5" height="7.2"/>
	<polygon points="390.2,62.7 390.2,48 376.5,48 376.5,62.7 368,62.7 368,27.6 376.5,27.6 376.5,40.9 390.2,40.9 390.2,27.6 
		398.6,27.6 398.6,62.7 	"/>
	<rect x="487.8" y="170.8" width="17" height="0"/>
	<rect x="704.8" y="170.8" width="16.7" height="0"/>
	<rect x="129" y="170.8" class="st3" width="48.9" height="0"/>
	<rect x="587.4" y="170.8" class="st4" width="48.9" height="0"/>
	<g>
		<path d="M41.2,170.8H14.4l0,0h26.1C40.8,170.8,41,170.8,41.2,170.8"/>
		<path d="M270.7,170.8h-28.5v0h27.9C270.3,170.8,270.5,170.8,270.7,170.8"/>
	</g>
	<path d="M354,170.8h16.6v0L354,170.8L354,170.8z M391.5,170.8L391.5,170.8l19.8,0v0H391.5z"/>
</g>
</svg>
